<?xml version="1.0" standalone="no"?>
<!DOCTYPE svg PUBLIC "-//W3C//DTD SVG 20010904//EN"
 "http://www.w3.org/TR/2001/REC-SVG-20010904/DTD/svg10.dtd">
<svg version="1.0" xmlns="http://www.w3.org/2000/svg"
 width="1048.000000pt" height="1048.000000pt" viewBox="0 0 1048.000000 1048.000000"
 preserveAspectRatio="xMidYMid meet">
<metadata>
Created by potrace 1.11, written by Peter Selinger 2001-2013
</metadata>
<g transform="translate(0.000000,1048.000000) scale(0.100000,-0.100000)"
fill="#000000" stroke="none">
<path d="M4585 10459 c-149 -21 -240 -66 -306 -151 -18 -24 -36 -47 -39 -51
-4 -5 -22 -11 -41 -14 -18 -2 -65 -16 -103 -30 -181 -64 -314 -171 -384 -308
-85 -168 -47 -402 109 -661 16 -27 17 -33 4 -51 -12 -17 -29 -101 -28 -138 3
-68 44 -234 80 -325 4 -8 7 -18 8 -22 2 -5 4 -10 5 -13 1 -3 3 -8 4 -12 1 -5
4 -12 7 -18 4 -5 9 -22 12 -36 17 -69 99 -123 178 -117 47 3 49 2 55 -27 4
-16 21 -60 40 -97 32 -66 44 -85 126 -194 46 -61 46 -65 54 -216 l6 -117 -42
-21 c-50 -26 -130 -97 -130 -116 0 -8 -4 -14 -10 -14 -8 0 -20 -33 -37 -105
-2 -11 -6 -69 -8 -130 -2 -60 -4 -113 -4 -118 -1 -9 -38 -26 -176 -78 -60 -23
-123 -47 -140 -54 -16 -7 -104 -43 -195 -80 -91 -37 -184 -76 -207 -86 -23
-10 -44 -19 -47 -19 -21 0 -326 -152 -381 -190 -36 -25 -71 -75 -80 -114 -1
-6 -5 -18 -8 -26 -6 -16 -35 -114 -42 -146 -2 -11 -11 -46 -19 -80 -8 -34 -17
-72 -20 -85 -3 -13 -7 -33 -10 -44 -20 -87 -23 -105 -18 -110 3 -3 0 -5 -5 -5
-6 0 -10 -8 -8 -17 1 -10 -2 -29 -7 -43 -5 -13 -11 -40 -14 -60 -2 -19 -13
-75 -25 -125 -11 -49 -22 -103 -25 -120 -6 -39 -12 -70 -14 -70 -1 0 -3 -9 -5
-20 -6 -43 -14 -91 -20 -117 -9 -49 -15 -82 -21 -118 -3 -19 -8 -44 -11 -55
-3 -11 -7 -29 -9 -40 -1 -11 -5 -36 -9 -55 -43 -237 -57 -315 -89 -500 -3 -14
-7 -41 -10 -60 -3 -19 -8 -46 -10 -60 -3 -14 -7 -41 -10 -60 -3 -19 -8 -46
-11 -60 -2 -14 -6 -41 -9 -60 -2 -19 -7 -46 -10 -60 -3 -14 -8 -45 -11 -70 -2
-25 -6 -54 -8 -65 -3 -11 -7 -40 -11 -65 -3 -25 -9 -67 -13 -95 -12 -83 -9
-170 7 -201 49 -97 163 -216 330 -344 58 -45 118 -92 135 -105 16 -14 35 -25
41 -25 7 0 14 -4 16 -9 1 -5 59 -45 128 -90 69 -44 130 -85 137 -91 7 -5 14
-10 16 -10 2 0 62 -35 133 -78 71 -43 165 -98 209 -122 44 -23 83 -46 88 -50
7 -6 12 -23 23 -80 2 -14 7 -31 9 -37 2 -7 -3 -13 -13 -13 -41 0 -234 -9 -307
-14 -44 -4 -141 -8 -215 -11 -145 -5 -325 -19 -325 -25 0 -1 -18 -3 -40 -5
-92 -7 -259 -48 -334 -81 -29 -13 -60 -24 -67 -24 -8 0 -14 -4 -14 -9 0 -5
-10 -13 -22 -17 -25 -8 -33 -13 -104 -78 -37 -33 -65 -71 -86 -115 -28 -58
-31 -75 -31 -156 0 -60 5 -105 17 -135 9 -25 19 -53 21 -64 2 -10 10 -26 18
-35 7 -9 35 -53 62 -98 27 -46 53 -83 57 -83 4 0 8 -6 8 -14 0 -8 3 -16 8 -18
4 -1 26 -28 48 -58 45 -60 145 -172 183 -204 13 -12 38 -35 55 -51 17 -17 58
-51 91 -78 33 -26 65 -51 71 -56 6 -4 36 -25 67 -46 32 -21 56 -39 55 -40 -2
-2 -32 -6 -68 -10 -36 -3 -76 -8 -90 -10 -77 -11 -98 -14 -130 -20 -86 -15
-81 -14 -152 -30 -13 -3 -36 -7 -53 -10 -97 -14 -269 -72 -307 -104 -81 -69
-103 -91 -132 -140 -46 -77 -60 -136 -53 -219 6 -58 39 -166 57 -182 3 -3 17
-23 31 -45 43 -66 108 -122 188 -164 70 -36 143 -63 183 -67 9 0 24 -4 33 -8
78 -29 401 -28 580 3 72 13 150 30 174 38 24 8 51 16 60 18 9 2 82 28 164 59
81 31 178 66 215 77 37 12 81 26 97 32 17 6 35 12 40 14 34 7 55 13 95 26 46
16 187 58 205 61 6 2 30 8 55 16 156 45 216 62 308 85 101 26 105 26 175 11
40 -8 128 -27 197 -41 69 -15 197 -42 285 -62 88 -19 170 -37 182 -39 12 -2
69 -15 125 -29 57 -13 114 -26 128 -29 101 -22 182 -41 218 -50 56 -15 68 -18
87 -21 24 -5 47 -10 105 -25 25 -6 64 -16 88 -22 24 -5 71 -26 105 -45 136
-77 483 -240 539 -252 4 -1 25 -9 45 -18 36 -14 209 -78 225 -82 4 -1 13 -3
20 -5 71 -23 212 -62 253 -71 6 -2 30 -8 54 -15 25 -6 54 -13 65 -14 12 -2 39
-8 61 -14 22 -6 58 -14 80 -17 22 -4 49 -9 60 -10 11 -2 45 -8 75 -14 117 -22
149 -25 260 -25 124 -1 136 1 221 33 60 23 100 50 157 105 50 47 56 55 91 118
58 102 76 214 50 313 -5 22 -11 45 -12 50 -10 38 -42 115 -49 115 -4 0 -8 7
-8 15 0 8 -4 15 -10 15 -5 0 -10 6 -10 14 0 17 -67 85 -135 136 -68 52 -239
139 -304 156 -9 2 -50 13 -91 24 -41 11 -93 22 -115 25 -22 4 -83 15 -135 26
-52 11 -106 22 -120 25 -14 3 -43 10 -65 16 -49 14 -41 12 -95 27 -25 6 -51
14 -58 16 -7 3 -16 5 -20 6 -4 0 -13 5 -19 11 -7 6 -13 8 -13 5 0 -3 -39 13
-87 37 -49 24 -115 56 -147 71 -49 24 -56 30 -40 37 22 9 77 30 84 33 24 8 68
27 82 35 10 6 25 10 33 10 8 0 15 5 15 12 0 6 3 9 6 6 3 -4 40 11 82 32 42 20
104 50 137 65 33 16 77 39 98 52 20 13 37 20 37 16 0 -5 4 -3 8 2 4 6 18 16
32 22 14 7 48 26 75 43 28 16 57 33 65 37 20 9 205 125 225 140 6 5 30 21 55
37 45 29 265 192 286 211 6 5 35 30 64 55 144 120 272 265 318 357 28 57 30
70 28 151 -2 78 -6 97 -38 164 -20 42 -46 86 -57 97 -12 12 -18 21 -14 21 20
0 -141 135 -214 178 -75 45 -216 108 -263 117 -8 2 -15 4 -15 5 0 2 -19 7
-128 30 -84 18 -122 20 -270 16 -95 -2 -183 -7 -197 -9 -14 -3 -52 -8 -85 -11
-33 -3 -82 -10 -110 -15 -27 -5 -68 -12 -91 -15 -22 -4 -56 -11 -74 -16 -19
-5 -35 -8 -37 -6 -2 2 29 23 69 46 142 84 324 209 388 267 8 7 24 21 36 31
129 105 274 247 429 423 17 19 63 77 103 129 40 52 76 100 80 105 51 68 73
112 67 140 -10 47 -13 60 -15 63 -2 1 -3 5 -4 10 -1 4 -4 12 -8 18 -4 6 -9 21
-12 35 -4 20 -32 103 -53 159 -3 8 -7 20 -9 25 -1 6 -15 42 -29 80 -14 39 -33
90 -42 115 -8 25 -20 53 -25 63 -5 10 -11 26 -13 35 -5 24 -142 363 -202 502
-100 228 -117 265 -131 283 -8 9 -12 17 -8 17 8 0 -186 384 -196 388 -5 2 -8
8 -8 14 0 6 -20 44 -45 86 -25 41 -45 78 -45 82 0 5 -3 10 -7 12 -5 2 -17 21
-28 42 -11 22 -24 45 -30 51 -14 15 -33 45 -47 75 -7 14 -15 27 -18 30 -4 3
-22 28 -40 55 -19 28 -39 55 -45 62 -19 22 -30 38 -49 67 -37 58 -169 198
-183 194 -10 -3 -140 41 -176 59 -16 8 -36 16 -45 18 -22 4 -258 92 -299 110
-17 8 -33 15 -36 15 -3 0 -18 5 -34 12 -15 6 -30 12 -33 12 -6 1 -67 25 -95
36 -11 5 -74 30 -140 55 -66 26 -165 65 -220 87 -55 22 -105 42 -110 44 -6 3
-10 51 -9 121 2 156 -13 213 -70 267 -17 16 -43 33 -58 38 -15 5 -25 15 -23
21 2 7 6 28 9 47 10 66 15 81 38 118 12 20 24 39 28 42 7 7 56 83 61 95 2 6
18 34 36 64 18 30 33 58 33 62 0 3 8 24 17 45 9 22 18 44 19 50 8 44 17 54 46
54 51 0 124 47 147 94 51 103 116 310 127 406 3 30 8 57 9 60 2 3 -1 32 -6 64
-10 58 -35 105 -74 138 -26 22 -89 38 -107 27 -25 -16 -31 -9 -23 34 19 109 9
240 -26 322 -6 17 -13 36 -15 44 -1 8 -9 18 -16 22 -15 9 2 27 67 71 42 28
140 118 128 118 -3 0 3 10 14 23 22 24 66 95 70 112 1 5 9 30 18 55 19 53 26
167 13 224 -28 126 -146 207 -288 200 -66 -3 -83 -6 -110 -17 -8 -4 -33 -13
-55 -21 -70 -24 -179 -67 -195 -75 -33 -18 -222 -3 -315 24 -49 14 -98 28
-109 30 -10 2 -42 11 -70 19 -28 8 -64 17 -81 20 -16 3 -42 8 -58 12 -42 9
-186 11 -242 3z m1997 -5010 c7 -16 16 -29 20 -29 5 0 8 -5 8 -12 0 -6 6 -19
14 -27 44 -50 277 -478 350 -641 31 -71 79 -200 89 -241 7 -28 -5 -40 -159
-166 -22 -17 -52 -43 -69 -58 -16 -14 -46 -38 -64 -53 -19 -15 -51 -42 -70
-59 -41 -38 -55 -42 -46 -13 3 11 8 30 10 42 5 27 14 75 20 103 3 11 13 58 23
105 29 129 16 194 -49 258 -42 41 -87 55 -176 56 -83 1 -81 -1 -64 92 5 27 12
69 16 94 3 25 9 54 12 65 4 11 7 29 8 40 1 18 10 70 21 130 2 11 6 34 9 50 6
32 12 64 21 105 3 14 7 34 8 45 4 21 15 78 21 105 2 8 4 23 4 32 1 26 28 11
43 -23z m-2867 -166 c2 -10 4 -19 4 -20 1 -2 2 -6 2 -10 1 -5 5 -17 9 -28 4
-11 11 -42 14 -69 4 -27 9 -53 12 -58 3 -4 7 -22 9 -40 3 -18 7 -44 10 -58 12
-62 15 -77 20 -105 3 -16 10 -55 14 -85 5 -30 10 -59 11 -65 6 -27 -5 -30
-107 -29 -63 0 -127 -5 -153 -13 -99 -30 -162 -138 -139 -241 l7 -34 -23 22
-24 22 65 187 c35 102 68 195 73 206 5 11 26 65 47 120 20 55 47 120 58 145
11 25 20 47 21 50 1 14 59 129 62 126 3 -2 6 -12 8 -23z"/>
<path d="M7032 8974 c-224 -46 -397 -217 -442 -439 -14 -69 -19 -312 -7 -400
23 -182 139 -348 297 -429 87 -44 232 -78 280 -66 14 4 37 3 51 -1 16 -4 31
-3 38 4 8 8 11 8 11 -1 0 -9 6 -10 18 -4 9 5 28 6 42 2 14 -4 37 -3 52 1 14 4
29 5 31 3 8 -9 61 -11 82 -4 11 4 29 4 40 0 11 -4 30 -4 42 1 14 5 23 4 27 -4
2 -7 5 -7 5 -2 1 6 30 8 76 5 42 -3 83 -2 93 1 9 4 27 3 39 -2 13 -5 25 -4 28
1 3 5 15 6 28 1 27 -10 178 19 233 45 164 75 292 233 327 404 19 94 15 408 -6
477 -50 164 -139 274 -289 356 -41 23 -68 32 -153 54 -44 12 -885 9 -943 -3z"/>
</g>
</svg>
