<?xml version="1.0" standalone="no"?>
<!DOCTYPE svg PUBLIC "-//W3C//DTD SVG 20010904//EN"
 "http://www.w3.org/TR/2001/REC-SVG-20010904/DTD/svg10.dtd">
<svg version="1.0" xmlns="http://www.w3.org/2000/svg"
 width="256.000000pt" height="156.000000pt" viewBox="0 0 256.000000 156.000000"
 preserveAspectRatio="xMidYMid meet">

<g transform="translate(0.000000,156.000000) scale(0.100000,-0.100000)"
fill="#000000" stroke="none">
<path d="M630 1420 c0 -6 63 -136 140 -290 77 -154 140 -284 140 -289 0 -5
-72 -7 -177 -4 l-177 6 -165 124 c-138 102 -171 123 -196 121 -54 -5 -46 -37
74 -275 121 -243 148 -278 223 -287 99 -12 1813 -36 1850 -26 48 14 78 52 78
99 0 63 -45 111 -144 157 -100 46 -168 54 -519 61 l-327 6 -298 276 c-393 364
-349 331 -433 331 -40 0 -69 -4 -69 -10z"/>
<path d="M922 407 c-47 -50 -14 -127 53 -127 46 0 75 29 75 75 0 69 -81 102
-128 52z"/>
<path d="M1169 401 c-32 -32 -35 -47 -18 -84 22 -49 86 -61 124 -22 40 39 32
96 -16 120 -40 21 -57 19 -90 -14z"/>
</g>
</svg>
