<svg id="Layer_1" data-name="Layer 1" xmlns="http://www.w3.org/2000/svg" viewBox="0 0 478.47 131.14"><defs><style>.cls-1{fill:#fbd46d;}.cls-2,.cls-4,.cls-9{fill:#fff;}.cls-10,.cls-3,.cls-7,.cls-8{fill:none;}.cls-3,.cls-7,.cls-9{stroke:#1a2e35;}.cls-10,.cls-3,.cls-7,.cls-8,.cls-9{stroke-linecap:round;stroke-linejoin:round;}.cls-10,.cls-3,.cls-8,.cls-9{stroke-width:1.1px;}.cls-4{opacity:0.5;}.cls-5,.cls-8{opacity:0.2;}.cls-6{fill:#1a2e35;}.cls-7{stroke-width:2.21px;}.cls-10,.cls-8{stroke:#fff;}.cls-11{fill:#cee9ca;}</style></defs><title>LogoWhiteSVG</title><path class="cls-1" d="M229.34,347.43s-14.75,4.23-16.81,5c-1.87.67-6.95,2.44-10.76,1.89a7.51,7.51,0,0,1-1.09-.23c-3.86-1.15-5.59-2.22-6.1-4.65s1.42-4.22,3.27-5.36,11.89-2.34,11.89-2.34l2.42.71h0Z" transform="translate(-194.03 -229.16)"/><path class="cls-2" d="M201.77,354.28a7.51,7.51,0,0,1-1.09-.23c-3.86-1.15-5.59-2.22-6.1-4.65s1.42-4.22,3.27-5.36,11.89-2.34,11.89-2.34l2.42.71c-2.19,1-10.37,1.57-12.15,2.6s-2.65,3-1.59,5.58A10.13,10.13,0,0,0,201.77,354.28Z" transform="translate(-194.03 -229.16)"/><path class="cls-3" d="M227.12,348s-11.08,2.87-15.47,4.7-12.77,2.64-15.76-1.15-.34-7,2.64-7.77,9-1.87,12.32-1.41" transform="translate(-194.03 -229.16)"/><path class="cls-3" d="M202,354.08s-5.63-3.09-3.76-7.42c1.38-3.19,8.9-2.5,12.62-4.25" transform="translate(-194.03 -229.16)"/><path class="cls-1" d="M274.25,355a4.66,4.66,0,0,1-2.21,3.85,8.65,8.65,0,0,1-4.53.94c-5.17-.07-14.89-3.77-14.89-3.77l-9.11-5,4.74-7.49,1.29-2.05,3.35.75s2.77,1.57,5.56,2.82,9.55,1.51,11.94,3.44S274.51,352.46,274.25,355Z" transform="translate(-194.03 -229.16)"/><path class="cls-2" d="M274.25,355a4.66,4.66,0,0,1-2.21,3.85,6.78,6.78,0,0,0-.26-4.54c-1-2.29-4.32-4.3-8.67-4.64s-7.69-2.37-9.43-3.28c-1.37-.7-4.24-2.25-5.43-2.89l1.29-2.05,3.35.75s2.77,1.57,5.56,2.82,9.55,1.51,11.94,3.44S274.51,352.46,274.25,355Z" transform="translate(-194.03 -229.16)"/><path class="cls-3" d="M245.53,352.37a57.25,57.25,0,0,0,21.31,7.28c1.65.2,3.58.23,4.69-1a3.48,3.48,0,0,0,.76-2.61c-.2-2.33-2.16-4.19-4.32-5.11s-4.53-1.15-6.82-1.66a26.89,26.89,0,0,1-6.56-2.4,20.36,20.36,0,0,0-5.06-2.29c-1.81-.38-4,.08-4.94,1.67" transform="translate(-194.03 -229.16)"/><path class="cls-3" d="M270.92,359.27a6.06,6.06,0,0,0,3.33-4.3,6.38,6.38,0,0,0-2.69-5.77,14.88,14.88,0,0,0-6.16-2.45,39.5,39.5,0,0,1-6.48-1.57c-3.19-1.24-6.34-3.71-9.65-2.83" transform="translate(-194.03 -229.16)"/><path class="cls-1" d="M255.8,273.59l-15.4-5.86-.19-.07s0-.41.1-1c.09-1.23.14-3.24-.43-3.91-.86-1-3.3-.17-5.67-1.25s-6.77.85-6.77.85-3.16-.58-4.56,1.71a12.49,12.49,0,0,0-.47,4.59l-.29.11c-1.83.68-11.82,4.44-13.93,5.95-2.34,1.66-4.92,18.63-5.75,23.61s-2.3,9.47-1.55,11.19,11.48,10,17.65,12.1,28.06,1.51,28.06,1.51.36-.09,1-.3c3.71-1.18,16.84-6.08,23.81-17.63C271.4,305.19,264.65,283.05,255.8,273.59Zm-41.62,28.55c-1.13.8-.52,3.91-.52,3.91l-1.93-1.7,4.84-11.9,2.06,9.14S215.32,301.34,214.18,302.14Zm38.73,7.56c-.53.27,1.53-5.45.55-6.74s-3.92-1.18-3.92-1.18l.25-1.56c0-.18,1.75-9,1.75-9l.58-.69s6,10.27,7.06,13.89C259.18,304.47,252.65,309.7,252.91,309.7Z" transform="translate(-194.03 -229.16)"/><path class="cls-2" d="M226.72,236.47l-7.95,8.44s-1.1,1-.66,3.42,1.45,4.55,2.21,4.71a11.59,11.59,0,0,0,1.84.17,33.37,33.37,0,0,0,2.91,5.14,63,63,0,0,1,.2,7.28s2.86,2.5,5.55,2.81,6.85-3.8,6.85-3.8l1-5.05s2.43-3.7,2.6-4.69,1.28-.73,1.83-1.21a9.32,9.32,0,0,0,2-4.72c.2-2.05.22-4.41-2.17-3.72-2.07-.56-.77-4.93-.77-4.93l-3.63-3.21Z" transform="translate(-194.03 -229.16)"/><path class="cls-4" d="M240.4,267.73a8.76,8.76,0,0,1-.41.92c-1.31,2.48-7,7.19-7,7.19l-1.73-5.31-.95,5.31c-1.9-.83-7.72-5.87-7.72-5.87s-.2-.48-.44-1.21l.29-.11a12.49,12.49,0,0,1,.47-4.59c1.4-2.29,4.56-1.71,4.56-1.71s4.4-1.94,6.77-.85,4.81.24,5.67,1.25.33,4.91.33,4.91Z" transform="translate(-194.03 -229.16)"/><path class="cls-5" d="M255.8,273.59l-15.4-5.86-.19-.07s0-.41.1-1l-.32,2-2.28,3.1a63,63,0,0,1,7.11,3.13,6.25,6.25,0,0,1,3.26,6.23l-2.84,24.28-1.16,13.79,3.51,3.64c3.71-1.18,16.84-6.08,23.81-17.63C271.4,305.19,264.65,283.05,255.8,273.59Zm-2.89,36.11c-.53.27,1.53-5.45.55-6.74s-3.92-1.18-3.92-1.18l.25-1.56c0-.18,1.75-9,1.75-9l.58-.69s6,10.27,7.06,13.89C259.18,304.47,252.65,309.7,252.91,309.7Z" transform="translate(-194.03 -229.16)"/><path class="cls-5" d="M219.68,303l-2.4-8S213,280.3,210,276.69l.77,10.3s-2.52,12.31-4.86,16-2.85,4.56,0,4.56,9.76,5.52,9.76,5.52l-.53-4.6Zm-6,3.09-1.93-1.7,4.84-11.9,2.06,9.14s-3.31-.25-4.45.55S213.66,306.05,213.66,306.05Z" transform="translate(-194.03 -229.16)"/><path class="cls-3" d="M225.07,258.35a27.78,27.78,0,0,1,0,6.29" transform="translate(-194.03 -229.16)"/><path class="cls-3" d="M238.1,264.06a18.5,18.5,0,0,1,.49-4.12" transform="translate(-194.03 -229.16)"/><path class="cls-3" d="M239.26,239.69s2.61,3.28,2.48,5.75-.34,5.43-.27,8.31-4.62,8.9-7,9.44-4.49.67-6-.87a57.93,57.93,0,0,1-5.09-6.43c-2-2.75-1.54-8.77-1.54-8.77" transform="translate(-194.03 -229.16)"/><path class="cls-3" d="M233,249.41a13.9,13.9,0,0,0-.21,2.73,3.12,3.12,0,0,0,.67,2.14c.29.3.71.53.76.94a1,1,0,0,1-.53.89,7.29,7.29,0,0,0-.94.56" transform="translate(-194.03 -229.16)"/><path class="cls-3" d="M228.83,257a3.15,3.15,0,0,0,2.91,2.35" transform="translate(-194.03 -229.16)"/><path class="cls-6" d="M229.1,250.9c0,.56-.24,1-.54,1s-.55-.46-.55-1,.25-1,.55-1S229.1,250.34,229.1,250.9Z" transform="translate(-194.03 -229.16)"/><path class="cls-6" d="M236.89,251.14c0,.57-.25,1-.55,1s-.54-.45-.54-1,.24-1,.54-1S236.89,250.58,236.89,251.14Z" transform="translate(-194.03 -229.16)"/><path class="cls-7" d="M235.31,248.68s2.54-2.53,4.68.29" transform="translate(-194.03 -229.16)"/><path class="cls-7" d="M230,248.73s-1.61-1.8-4.14,0" transform="translate(-194.03 -229.16)"/><path class="cls-6" d="M225.27,260.72s1.55,4.28,5,5.49,8.06-5.08,8.06-5.08l-.24-.82s-3,3.92-6.36,3.25-6.67-5.21-6.67-5.21Z" transform="translate(-194.03 -229.16)"/><path class="cls-3" d="M222.16,253s-2.06.73-2.61-.88-2.43-5.84-.78-7.25,3,1.86,3,1.86" transform="translate(-194.03 -229.16)"/><path class="cls-3" d="M241.47,253.92s1.92.38,2.46-1.22,2.43-5.85.79-7.26-3,1.87-3,1.87" transform="translate(-194.03 -229.16)"/><path class="cls-6" d="M221.74,250.9a2.86,2.86,0,0,0,1.81-1.07,4.4,4.4,0,0,0,.52-1.62,19,19,0,0,0,.29-3.28,4.16,4.16,0,0,1,.12-1.27,3.26,3.26,0,0,1,.69-1.14c.72-.84,1.58-1.55,2.27-2.43a4,4,0,0,0,1-3.07A13.94,13.94,0,0,0,239.87,240c3.63-.71,7.12-3.9,6.7-7.9a3.24,3.24,0,0,0-2.56-2.79c-1.8-.45-3.41.51-5,1.12-3,1.12-5.87-.8-8.86-1.12-2.57-.28-5.71,0-7.05,2.59,0,0-4.6.54-6.62,4.32s1.82,9,1.82,9,1.54-1.87,3.52,1.91Z" transform="translate(-194.03 -229.16)"/><path class="cls-6" d="M239.55,238.72s-1.19,6.2,1.92,9.21a6.42,6.42,0,0,1,1.37-2.32,7.22,7.22,0,0,0-.55-6.89C240,235.11,239.55,238.72,239.55,238.72Z" transform="translate(-194.03 -229.16)"/><path class="cls-8" d="M245.24,231.66a5.86,5.86,0,0,1-3.54,3.7c-4.32,1.76-8.5-.19-12.82-.57a7.52,7.52,0,0,0-7.67,6.49" transform="translate(-194.03 -229.16)"/><path class="cls-8" d="M218.54,240.32a7.51,7.51,0,0,1,4.59-6.65" transform="translate(-194.03 -229.16)"/><path class="cls-3" d="M224.08,264.06a19.61,19.61,0,0,0,6.72,4.59s5.16-1.49,7.79-5.09" transform="translate(-194.03 -229.16)"/><circle class="cls-3" cx="227.45" cy="250.9" r="4.57" transform="translate(-277.92 -111.51) rotate(-24.64)"/><circle class="cls-3" cx="237.65" cy="250.9" r="4.57" transform="translate(-222.85 -198.32) rotate(-7)"/><path class="cls-3" d="M225.07,262.36a3.58,3.58,0,0,0-2.19,1.7c-.81,1.42-.32,5.9-.32,5.9s4.17,4.13,7.72,5.88l1.05-5.9,1.63,5.9s5.5-3.9,7-7.19c0,0,.49-3.83,0-5.09a1.76,1.76,0,0,0-1.65-1.2" transform="translate(-194.03 -229.16)"/><path class="cls-3" d="M218.54,301.78s-1.63-10.93-3.81-15.39" transform="translate(-194.03 -229.16)"/><path class="cls-3" d="M210,276.69a44.79,44.79,0,0,1,3.38,5.65" transform="translate(-194.03 -229.16)"/><path class="cls-3" d="M252.91,284.85a31.67,31.67,0,0,1,1.8-5.33" transform="translate(-194.03 -229.16)"/><path class="cls-3" d="M249.54,301.78s1.18-7.49,2.58-13.66" transform="translate(-194.03 -229.16)"/><path class="cls-3" d="M251.54,291.27a8.57,8.57,0,0,1,4.54-3.11" transform="translate(-194.03 -229.16)"/><path class="cls-3" d="M240.21,267.66s9.48,3.79,15.59,5.94c0,0,7.53,7.07,15.6,31.59,0,0-7.4,12.44-21.46,16.43" transform="translate(-194.03 -229.16)"/><path class="cls-3" d="M252.38,310.14l6.8-5.67s3.59-2.73,7.33-.86" transform="translate(-194.03 -229.16)"/><path class="cls-3" d="M252.12,290.58s5.62,8.28,7.06,13.89" transform="translate(-194.03 -229.16)"/><path class="cls-3" d="M213.72,306.37l-2-1.9a9.33,9.33,0,0,0-6.3,1.72" transform="translate(-194.03 -229.16)"/><path class="cls-3" d="M211.73,304.47s2.47-8.11,4.91-12.3" transform="translate(-194.03 -229.16)"/><path class="cls-3" d="M222.41,268.65s-13.63,5.12-15,6.61-6.42,30.1-6.55,33.38c-.12,2.92,10.5,9.5,15.75,12.27" transform="translate(-194.03 -229.16)"/><rect class="cls-9" x="58.88" y="19.14" width="22.18" height="15.76" rx="6.53" ry="6.53"/><polyline class="cls-3" points="66.04 23.88 61.77 26.55 65.73 30.07"/><polyline class="cls-3" points="73.81 30.32 77.64 27.05 73.22 24.15"/><line class="cls-3" x1="68.11" y1="32.33" x2="71.26" y2="22.46"/><text x="-194.03" y="-229.16"></text><path class="cls-6" d="M248.38,326.23h-31a.72.72,0,0,1-.72-.72h0a.72.72,0,0,1,.72-.73h31a.73.73,0,0,1,.73.73h0A.73.73,0,0,1,248.38,326.23Z" transform="translate(-194.03 -229.16)"/><path class="cls-9" d="M249.47,323.82l4.16-19.52a2.09,2.09,0,0,0-2-2.52H215.34a2.09,2.09,0,0,0-2,2.49L217,323.14a2.08,2.08,0,0,0,2,1.68l28.37.65A2.08,2.08,0,0,0,249.47,323.82Z" transform="translate(-194.03 -229.16)"/><path class="cls-6" d="M236.24,313a2.9,2.9,0,1,1-2.9-2.9A2.89,2.89,0,0,1,236.24,313Z" transform="translate(-194.03 -229.16)"/><line class="cls-3" x1="47.9" y1="74.47" x2="52.2" y2="74.47"/><line class="cls-3" x1="27.33" y1="74.47" x2="43.68" y2="74.47"/><path class="cls-6" d="M249.54,344.54l-3.31,8.67s-8.42-2.12-19.22-4.33c-11.29-2.32-23.09-5.31-29.2-16.05a6,6,0,0,1-.9-4.32c.89-3.7,5.71-4.71,8.89-5.08,2-.23,4-.31,6-.34,1,0,4.4-.55,5.22.05a24.21,24.21,0,0,0,3.92,2.33c1.81.76,28.16-.69,28.16-.69a9.48,9.48,0,0,0,.83-3.16c4.14-2.11,13.73-3.89,17.79-3.11,6.37,1.24,10.09,5,9.38,8.86S262.34,341.71,249.54,344.54Z" transform="translate(-194.03 -229.16)"/><path class="cls-10" d="M249.54,344.54A55.24,55.24,0,0,1,235,338c-6.55-4.43-11.66-9.56-20.79-8.5" transform="translate(-194.03 -229.16)"/><path class="cls-10" d="M233.47,336.94c4.14-1.19,7.17-3.86,10.49-6.43a70.49,70.49,0,0,1,11.24-7.38" transform="translate(-194.03 -229.16)"/><line class="cls-3" x1="37.98" y1="22.46" x2="39.2" y2="22.46"/><path class="cls-1" d="M288.8,292v26.74h-4.35V292H272.69v-3.94h27.83V292Z" transform="translate(-194.03 -229.16)"/><path class="cls-1" d="M325.41,318.76v-14H305.09v14h-4.34V288.08h4.34v12.76h20.32V288.08h4.35v30.68Z" transform="translate(-194.03 -229.16)"/><path class="cls-1" d="M332.43,318.76V288.08h25.38V292H336.72v8.82h18.7v3.94h-18.7v10.05H358v3.93Z" transform="translate(-194.03 -229.16)"/><path class="cls-1" d="M406.74,318.76h-3.31l-6.51-14-6.34,14h-3.3L373,288.08h4.66l11.23,24.17,5.61-12.54-5.34-11.63h4.66l11.22,24.17L416,288.08h4.66Z" transform="translate(-194.03 -229.16)"/><path class="cls-1" d="M446.11,318.76l-4.39-9.05H426.6l-4.48,9.05h-4.88l15.38-30.68H436l14.84,30.68Zm-11.81-24.3-5.7,11.32h11.22Z" transform="translate(-194.03 -229.16)"/><path class="cls-1" d="M475.35,318.76,454.62,295v23.8h-4.35V288.08h3.9q3.93,4.71,10.45,12,7.88,8.82,10.32,11.63V288.08h4.34v30.68Z" transform="translate(-194.03 -229.16)"/><path class="cls-1" d="M506.48,314.92q-4.75,3.84-12.9,3.84H482V288.08H495.3q8,0,12.22,4.16t4.08,11.23Q511.6,310.85,506.48,314.92ZM504.4,295q-3-3-9.14-3h-9v22.81h7.42c4.34,0,7.69-1,10-2.88s3.51-4.74,3.51-8.48S506.3,296.91,504.4,295Z" transform="translate(-194.03 -229.16)"/><path class="cls-1" d="M513.63,318.76V288.08H539V292H517.93v8.82h18.69v3.94H517.93v10.05h21.32v3.93Z" transform="translate(-194.03 -229.16)"/><path class="cls-1" d="M563.69,303.78a7.4,7.4,0,0,1,3.53,6.7v8.28h-4.35v-8.14q0-4.71-7.42-4.71h-11v12.85h-4.35V288.08h15.8q11.8,0,11.81,8.51A7.78,7.78,0,0,1,563.69,303.78ZM556,292H544.41v9.91h10.81a11.59,11.59,0,0,0,5.75-1.22,4.35,4.35,0,0,0,2.35-4Q563.32,292,556,292Z" transform="translate(-194.03 -229.16)"/><path class="cls-1" d="M570,318.76V288.08h25.39V292H574.32v8.82H593v3.94H574.32v10.05h21.32v3.93Z" transform="translate(-194.03 -229.16)"/><path class="cls-1" d="M620.08,303.78a7.4,7.4,0,0,1,3.53,6.7v8.28h-4.35v-8.14q0-4.71-7.42-4.71h-11v12.85h-4.35V288.08h15.8q11.81,0,11.81,8.51A7.78,7.78,0,0,1,620.08,303.78ZM612.34,292H600.8v9.91h10.81a11.59,11.59,0,0,0,5.75-1.22,4.36,4.36,0,0,0,2.36-4Q619.72,292,612.34,292Z" transform="translate(-194.03 -229.16)"/><path class="cls-11" d="M347.92,334.76a5.57,5.57,0,0,1-5.88,6h-4.63V329H342A5.56,5.56,0,0,1,347.92,334.76Zm-8.31,3.85H342a3.77,3.77,0,0,0,0-7.54h-2.43Z" transform="translate(-194.03 -229.16)"/><path class="cls-11" d="M373.31,340.74h-8.82V329h8.82v2.15H366.7v2.71h6.37v2.07H366.7v2.66h6.61Z" transform="translate(-194.03 -229.16)"/><path class="cls-11" d="M396.74,340.79h-2.31L389.54,329H392l3.55,9.17,3.56-9.17h2.49Z" transform="translate(-194.03 -229.16)"/><path class="cls-11" d="M426.92,340.74H418.1V329h8.82v2.15h-6.61v2.71h6.37v2.07h-6.37v2.66h6.61Z" transform="translate(-194.03 -229.16)"/><path class="cls-11" d="M446,329v9.72h6.06v2.05h-8.28V329Z" transform="translate(-194.03 -229.16)"/><path class="cls-11" d="M502.29,337.28H499v3.46h-2.21V329h5.54A4.16,4.16,0,1,1,502.29,337.28Zm-3.33-2h3.33a2.09,2.09,0,1,0,0-4.17H499Z" transform="translate(-194.03 -229.16)"/><path class="cls-11" d="M532,340.74h-8.81V329H532v2.15h-6.61v2.71h6.38v2.07h-6.38v2.66H532Z" transform="translate(-194.03 -229.16)"/><path class="cls-11" d="M559.33,340.74h-2.64l-3.43-3.93h-2.13v3.93h-2.22V329h5.6a3.91,3.91,0,0,1,4.24,3.9,3.49,3.49,0,0,1-3,3.7l3.56,4Zm-8.2-9.7v3.77h3.38a1.89,1.89,0,1,0,0-3.77Z" transform="translate(-194.03 -229.16)"/><path class="cls-11" d="M671.62,298.51a22.71,22.71,0,0,1-1.32,3.3,25.38,25.38,0,0,1-1.88,3,29.47,29.47,0,0,1-4.82,5.22,45.84,45.84,0,0,1-5.75,4.21,63.52,63.52,0,0,1-6.26,3.47,110.34,110.34,0,0,1-13.36,5.39A215.32,215.32,0,0,1,611,330c-8.77,1.68-17,2.88-24.09,3.75-14.15,1.73-23.63,2.2-23.63,2.2s9.45-.91,23.48-3.28c7-1.2,15.15-2.76,23.77-4.84a212.2,212.2,0,0,0,26.47-8,105.05,105.05,0,0,0,12.63-5.78,62.41,62.41,0,0,0,5.72-3.52,41,41,0,0,0,5-4,25,25,0,0,0,3.85-4.56,21,21,0,0,0,1.36-2.43,16.34,16.34,0,0,0,.86-2.49,13.39,13.39,0,0,0,.37-4.93l-.05-.6-.12-.6c-.07-.39-.15-.78-.23-1.17-.26-.76-.41-1.52-.74-2.25a31.21,31.21,0,0,0-4.45-7.55,61.86,61.86,0,0,0-4.73-5.23l-1.88-1.79-1.36-1.2.21.06c.82.23,1.66.47,2.51.68a4.48,4.48,0,0,0,1,.13,2.33,2.33,0,0,0,2-.93,2.46,2.46,0,0,0-.28-3.08c-.1-.11-.2-.22-.31-.32l.79-.39,0,0,2,2.13a64.86,64.86,0,0,1,5,6.11,37.66,37.66,0,0,1,4.93,9.37c.35.92.54,2,.81,3,.08.52.16,1,.25,1.59l.11.81,0,.83A19.09,19.09,0,0,1,671.62,298.51Z" transform="translate(-194.03 -229.16)"/><path class="cls-11" d="M613.23,247h0Z" transform="translate(-194.03 -229.16)"/><path class="cls-11" d="M613.22,247h0Z" transform="translate(-194.03 -229.16)"/><path class="cls-11" d="M613.22,247h0Z" transform="translate(-194.03 -229.16)"/><path class="cls-11" d="M630.11,258.47h0Z" transform="translate(-194.03 -229.16)"/><path class="cls-11" d="M634.48,261.49h0Z" transform="translate(-194.03 -229.16)"/><path class="cls-11" d="M622.12,253h0Z" transform="translate(-194.03 -229.16)"/><path class="cls-11" d="M623,253.63h0Z" transform="translate(-194.03 -229.16)"/><path class="cls-11" d="M631,259.07h0Z" transform="translate(-194.03 -229.16)"/><path class="cls-11" d="M615.9,248.8h0Z" transform="translate(-194.03 -229.16)"/><path class="cls-11" d="M602.53,273l.05.17a1.4,1.4,0,0,0,.09.29l10.7-11.95-.55-.11a5.86,5.86,0,0,1-1-.26c0-.18,0-.37,0-.58A4.51,4.51,0,0,1,612,260a4.8,4.8,0,0,1,.1-.47,3.23,3.23,0,0,1,.08-.33.4.4,0,0,1,0-.12l-.08.1-.2.27c-.08.13-.18.26-.27.41a4.94,4.94,0,0,0-.3.49c-.08.15-.16.3-.23.46-.28-.13-.54-.27-.78-.4a.75.75,0,0,1-.05-.16l0-.27c0-.11,0-.21,0-.31a1.62,1.62,0,0,1,0-.3,1.35,1.35,0,0,1,.05-.29,2.93,2.93,0,0,1,0-.29c0-.09,0-.17.07-.25a2.18,2.18,0,0,1,.13-.37,1.31,1.31,0,0,0,0-.14,1,1,0,0,1-.09.12c-.06.08-.16.18-.25.31s-.1.14-.15.22L610,259c-.05.09-.1.2-.15.3a1.55,1.55,0,0,0-.14.32,1.6,1.6,0,0,0-.11.33.07.07,0,0,0,0,.06c-.18-.1-.31-.19-.4-.25a2.8,2.8,0,0,1,2.18-2.79,6.42,6.42,0,0,1,3,.76,6.62,6.62,0,0,1,.84.84.32.32,0,0,0,.52-.05l2.9-4.56a10.4,10.4,0,0,1,3.38,1.88c1.44,1,2.79,2.05,3.85,2.91l-6,4.2L604,275.24c.23.17.39.27.41.28l.18.09,20.88-11.4a11.5,11.5,0,0,1,8.93-.91s1.91,1.28,4.81,3.14a28.74,28.74,0,0,0,7.42,2.94l-3.89,6.38.28.25,4.23-6.39.84-1.45c.53.16,1.86.57,3.16,1.07l-5.65,5.42,6.74-4.86.46.31-.43.4L644.21,277l.38.33,8.23-6.34.17-.16c1.2.33,2.41.68,3.62,1a1.85,1.85,0,0,0,2-.41,1.49,1.49,0,0,0-.21-1.84,14.52,14.52,0,0,0-1.65-1.39l-.7-.58,1.4,1.81-3.79-2.7.09-1.08,0-.71,3.75,3.51a1.46,1.46,0,0,0-.17-.24L664,265l.72-.38-.24-.32a.54.54,0,0,0-.09-.12l-7.41,3.52-.36-.42,5.28-2.82-6.05,1.9,0,.06-1.53-1.76,8.52-.95-.55-.3-8.45.68-.28-.31c0-.34.33-7.23.39-8.75a8.36,8.36,0,0,0-2.67-1.42l-4.42,4.79s-4.75-3.22-4.8-3.38a.86.86,0,0,1,.35-1.2h0a.92.92,0,0,1,.25-.17l2.52-1.21,16.54-8.23a1.78,1.78,0,0,0-.72-.54l-23.3,8.68-6.65-4.6,1.43-.37-.62-.2c0-.12,0-.27,0-.45a2.46,2.46,0,0,1,.07-.45c0-.08,0-.16,0-.23a1.12,1.12,0,0,0,.06-.23c0-.08.06-.15.08-.22l.07-.18a1.11,1.11,0,0,1,.07-.16l.05-.12.06-.1-.09.08a.38.38,0,0,0-.11.08,1.5,1.5,0,0,1-.13.11l-.16.15-.16.17-.17.19c0,.07-.11.14-.16.22a4.08,4.08,0,0,0-.28.44c-.06.09-.1.18-.15.27-.1-.08-.23-.16-.36-.27a2.61,2.61,0,0,1,1-1.64c1.39-1,3-.24,3.88.28s1.49.94,1.69,1.1l-3.59,1.49,3.82-1.31.15,0c.26-.1,19.86-3,21-3.32l.21-.07-.84-.15s-14.62,1.83-19.2,2.72a3.06,3.06,0,0,1-2.21-.42c-.22-.13-.46-.29-.74-.45-1.65-1-3.23-1.09-4.43-.26a3.25,3.25,0,0,0-1.22,2.13l0,.16,0,.29c-1.93-1.26-10.72-7-12.64-8.39a16.83,16.83,0,0,0-6.91-3.08,8.11,8.11,0,0,0-4.35.86c-.34.13-.69.27-1.07.4a2.6,2.6,0,0,0-1.95,2.45v.08a3.87,3.87,0,0,0,.13.77,1.39,1.39,0,0,0,0,.23,6.9,6.9,0,0,0,2.17,2.81,8.81,8.81,0,0,0,1.31,1l6.82,4.8a22.74,22.74,0,0,1,4.64,4.39l-2.29,3.62a.84.84,0,0,1-1.2.23h0a6.8,6.8,0,0,0-3.5-.86,3.4,3.4,0,0,0-2.68,3.68l0,.14a4.94,4.94,0,0,0,2.73,2.87l.05,0-.89,1Zm15-23.91a.68.68,0,0,0,.16.91h0C617.45,250.32,616.94,249.17,617.52,249.09Zm-.88-.6a.66.66,0,0,0,.15.91h0C616.57,249.72,616.06,248.56,616.64,248.49Zm-.89-.6a.67.67,0,0,0,.15.91h0C615.68,249.12,615.17,248,615.75,247.89Zm-.89-.6a.67.67,0,0,0,.15.91h0C614.79,248.5,614.28,247.36,614.86,247.29Zm-.88-.61a.65.65,0,0,0,.14.9h0C613.91,247.9,613.4,246.75,614,246.68Zm-.89-.61a.65.65,0,0,0,.15.91h0C613,247.3,612.51,246.15,613.09,246.07ZM637.94,263a.66.66,0,0,0,.16.91h0C637.87,264.22,637.37,263.08,637.94,263Zm-.89-.61a.67.67,0,0,0,.16.91h0C637,263.62,636.47,262.47,637.05,262.39Zm-.89-.6a.68.68,0,0,0,.16.91h0C636.1,263,635.58,261.86,636.16,261.79Zm-.88-.6a.65.65,0,0,0,.16.91h0C635.21,262.42,634.7,261.26,635.28,261.19Zm-.89-.6a.67.67,0,0,0,.15.91h0C634.32,261.8,633.81,260.65,634.39,260.59Zm-.89-.61a.66.66,0,0,0,.15.9h0C633.44,261.2,632.92,260.05,633.5,260Zm-.88-.61a.67.67,0,0,0,.14.91h0C632.55,260.6,632,259.45,632.62,259.37Zm-.89-.6a.67.67,0,0,0,.15.91h0C631.66,260,631.15,258.84,631.73,258.77Zm-.89-.61a.67.67,0,0,0,.15.91h0C630.76,259.39,630.26,258.23,630.84,258.16Zm-.89-.6a.67.67,0,0,0,.15.91h0C629.88,258.78,629.38,257.63,630,257.56Zm-.89-.6a.67.67,0,0,0,.16.91C629,258.14,628.5,257,629.06,257Zm-.89-.61a.68.68,0,0,0,.16.91h0C628.1,257.57,627.6,256.43,628.17,256.35Zm-.88-.61a.66.66,0,0,0,.16.91h0C627.22,257,626.71,255.82,627.29,255.74Zm-.89-.6a.66.66,0,0,0,.16.91h0C626.33,256.37,625.82,255.21,626.4,255.14Zm-.89-.6a.68.68,0,0,0,.15.91h0C625.44,255.77,624.93,254.61,625.51,254.54Zm-.88-.6a.67.67,0,0,0,.14.91h0C624.56,255.15,624.05,254,624.63,253.94Zm-.89-.61a.66.66,0,0,0,.15.9s0,0,0,0C623.67,254.55,623.16,253.4,623.74,253.33Zm-.89-.61a.68.68,0,0,0,.15.91h0C622.78,254,622.27,252.8,622.85,252.72Zm-.88-.6a.66.66,0,0,0,.14.91h0C621.9,253.35,621.39,252.19,622,252.12Zm-.9-.6a.66.66,0,0,0,.16.9h0C621,252.74,620.5,251.58,621.07,251.52Zm-.89-.61a.68.68,0,0,0,.16.91h0C620.11,252.13,619.61,251,620.18,250.91Zm-.88-.6a.67.67,0,0,0,.15.91C619.22,251.49,618.74,250.38,619.3,250.31Zm-13.46-9.67a.43.43,0,0,0,0-.24l38.31,24.94-38.77-27.12a2.21,2.21,0,0,1,.35-1.15l.51-.21a7.72,7.72,0,0,1,4.11-.81,15.52,15.52,0,0,1,6.66,3c1.62,1.15,8.12,5.43,11.29,7.51l11.87,8,2.73,1.88-29.49-18.85,31.46,21.32a2.84,2.84,0,0,1-.41,0,9.92,9.92,0,0,1-1.73-.25l9.87,8.1-6.44-4.56,4.7,4.85-42.62-27.81,40.62,28.22c-1.1-.4-2.13-.75-3-1-.37-.1-.71-.2-1-.27-3.57-.88-4.82-2.16-4.83-2.17h0Zm12.57,9.06a.67.67,0,0,0,.16.91h0C618.34,250.92,617.83,249.78,618.41,249.7Z" transform="translate(-194.03 -229.16)"/><path class="cls-11" d="M473.61,337.87c-.64-.43-1.29-.86-1.92-1.3-.2-.14-.4-.29-.59-.45a1,1,0,0,0-.6-.22,12.85,12.85,0,0,1-1.52-.17,2.6,2.6,0,0,1-.69-.29.35.35,0,0,0-.49.09c-.57.65-1.15,1.28-1.73,1.91a.72.72,0,0,0-.25.56,2.06,2.06,0,0,1-.31,1.14.6.6,0,0,1-.34.24c-.16,0-.28-.05-.37-.24-.31-.67-.66-1.33-1-2a5,5,0,0,1-.37-.78,2.54,2.54,0,0,1,0-.73c0-.26,0-.3-.37-.31s-.25.13-.25.31a9.77,9.77,0,0,0,.45,2.95,11.11,11.11,0,0,0,3.41,5.16,10.58,10.58,0,0,0,2.31,1.57,16.59,16.59,0,0,0,2.13.8,11.3,11.3,0,0,0,4.52.34,9.66,9.66,0,0,0,2.23-.48,10.4,10.4,0,0,0,2.18-1,12.26,12.26,0,0,0,3.18-2.74,10.13,10.13,0,0,0,1.4-2.2,14.22,14.22,0,0,0,.62-1.69,11.25,11.25,0,0,0,.34-4.28c0-.31-.1-.62-.15-.93s0-.59.49-.76a5.94,5.94,0,0,1,.18.6,12.13,12.13,0,0,1,.18,3.24,12.5,12.5,0,0,1-.47,2.57,11,11,0,0,1-1,2.33,12.06,12.06,0,0,1-2.5,3,12.72,12.72,0,0,1-3,2,12.17,12.17,0,0,1-5.7,1.06,11.76,11.76,0,0,1-2.94-.5,12.11,12.11,0,0,1-5.72-3.74,11.26,11.26,0,0,1-1.74-2.67,11.84,11.84,0,0,1-1-5.89,11.59,11.59,0,0,1,.64-3.06,11.93,11.93,0,0,1,3.33-4.81,11.63,11.63,0,0,1,3-2,11.89,11.89,0,0,1,6.31-1,14.64,14.64,0,0,1,2.36.44,10.78,10.78,0,0,1,3.62,1.84,13.57,13.57,0,0,1,3,3.09c.14.2.27.41.39.62a20.12,20.12,0,0,1,1.29,3.46s-.14-.63-.18-.6c-.21.16.08,2-.51.48-1.23-3.24-1.58-3.55-1.8-3.82-.42-.52-.86-1-1.3-1.55-.14-.15-.27-.12-.35.05-.21.42-.29.46-.73.33s-.68-.21-1-.29a1.93,1.93,0,0,0-.63,0c-.32.06-.64.18-1,.25s-.38.3-.47.54-.28.8-.43,1.19a.55.55,0,0,1-.46.39c-.32.05-.63.14-.94.22a.42.42,0,0,0-.33.39c0,.32-.06.65-.11,1s-.17.3-.39.18-.35-.09-.44.2-.2.5-.26.76a1.34,1.34,0,0,0-.06.56c.1.67.25,1.33.35,2a.86.86,0,0,1-.11.49c-.07.18-.21.34-.27.52a.33.33,0,0,1-.36.23h-.54c-.18,0-.27.08-.24.27s.1.52.14.79a2.58,2.58,0,0,1,0,.29Z" transform="translate(-194.03 -229.16)"/><path class="cls-11" d="M478.08,344.17c-.31-.11-.62-.21-.92-.33l-1.2-.48a1.54,1.54,0,0,0-.48-.06l-1.35.06c-.19,0-.28,0-.33-.26a4.4,4.4,0,0,0-.38-1.05.73.73,0,0,1,0-.7,12.57,12.57,0,0,1,.78-1.26.35.35,0,0,1,.27-.13,4.8,4.8,0,0,0,2.62-.41.33.33,0,0,1,.41.07c.15.13.29.26.45.38a.17.17,0,0,0,.3-.07c.08-.22.15-.45.24-.66a.63.63,0,0,1,.13-.2,1.07,1.07,0,0,1,.18.19c.12.24.21.49.35.72a12.42,12.42,0,0,0,.81,1.23.67.67,0,0,1,.07.75,5.85,5.85,0,0,1-1.21,1.78c-.2.22-.38.43-.72.35Z" transform="translate(-194.03 -229.16)"/><path class="cls-11" d="M483.49,340.86c-.12.32-.17.66-.48.85s-.88.61-1.33.88c-.29.18-.36.49-.5.75a1.65,1.65,0,0,1-.22.36c-.07.07-.25.16-.29.13s-.31-.28-.2-.48a11.33,11.33,0,0,1,.78-1.17,1,1,0,0,1,.5-.24.83.83,0,0,0,.5-.47c.13-.25.26-.5.4-.74s.23-.19.34,0S483.24,341.05,483.49,340.86Z" transform="translate(-194.03 -229.16)"/><path class="cls-11" d="M468,339.71c-.44.3-.88.62-1.33.91a.53.53,0,0,1-.59-.18.18.18,0,0,1,0-.17c.24-.26.48-.52.74-.77a.39.39,0,0,1,.26-.12c.29.05.57.14.86.21Z" transform="translate(-194.03 -229.16)"/><path class="cls-11" d="M475.77,334a3.89,3.89,0,0,1,.16-.44c.29-.59.59-1.17.89-1.76.07-.14.18-.15.32-.09s.13.18.06.29l-1.13,1.9c-.05.07-.15.1-.23.16Z" transform="translate(-194.03 -229.16)"/><path class="cls-11" d="M477.47,331.27c-.11,0-.21-.06-.23-.11s0-.13.06-.2.16-.26.24-.4a.23.23,0,0,1,.3-.11.38.38,0,0,1,.31.33c0,.08-.09.19-.17.24S477.63,331.19,477.47,331.27Z" transform="translate(-194.03 -229.16)"/><path class="cls-11" d="M476.07,338.18a1.51,1.51,0,0,1,.34-.17c.15,0,.41-.09.45,0a1.29,1.29,0,0,1,.1.53.21.21,0,0,1-.14.07C476.59,338.47,476.36,338.34,476.07,338.18Z" transform="translate(-194.03 -229.16)"/><path class="cls-11" d="M478.11,345c.15-.35.41-.56.59-.49a1,1,0,0,1,.28.22c-.09.09-.17.23-.28.25A2.25,2.25,0,0,1,478.11,345Z" transform="translate(-194.03 -229.16)"/><path class="cls-11" d="M478.86,337.86l-.18,0-.23-.11a1.36,1.36,0,0,1,.17-.17,3.28,3.28,0,0,1,.38-.27.47.47,0,0,1,.17,0c0,.06,0,.12,0,.17C479.13,337.6,479.07,337.8,478.86,337.86Z" transform="translate(-194.03 -229.16)"/><path class="cls-11" d="M474.64,338c.2.07.41.13.61.21s.12.15.1.18a1.05,1.05,0,0,1-.23.29.44.44,0,0,1-.17-.12c-.13-.16-.24-.33-.37-.49Z" transform="translate(-194.03 -229.16)"/><path class="cls-11" d="M479.57,339.08l.21-.45h.08c0,.1.09.22.05.29s-.17.15-.26.22Z" transform="translate(-194.03 -229.16)"/><path class="cls-11" d="M472.88,338.32l.41,0s.06.05.07.07a.11.11,0,0,1-.06.09.32.32,0,0,1-.42-.06Z" transform="translate(-194.03 -229.16)"/></svg>