<svg width="512" height="512" xmlns="http://www.w3.org/2000/svg">
 <title>Bootstrap</title>

 <g>
  <title>background</title>
  <rect x="-1" y="-1" width="514" height="514" id="canvas_background" fill="none"/>
 </g>
 <g>
  <title>Layer 1</title>
  <path stroke="null" fill="#563D7C" d="m442.29473,380.19649c0,34.15403 -27.94421,62.09825 -62.09825,62.09825l-248.39298,0c-34.15403,0 -62.09825,-27.94421 -62.09825,-62.09825l0,-248.39298c0,-34.15403 27.94421,-62.09825 62.09825,-62.09825l248.39298,0c34.15403,0 62.09825,27.94421 62.09825,62.09825l0,248.39298z" id="svg_1"/>
  <path stroke="null" fill="#FFF" d="m185.16698,170.42507l83.17786,0c15.34117,0 27.66203,3.4997 36.91467,10.54705s13.90293,17.64234 13.90293,31.88086c0,8.62941 -2.10941,16.01234 -6.32823,22.1488c-4.21882,6.13646 -10.25941,10.93058 -18.12175,14.28646l0,0.47941c10.54705,2.25323 18.55322,7.23911 23.97056,14.95763c5.41735,7.76646 8.14999,17.45057 8.14999,29.14821c0,6.71176 -1.19853,12.99204 -3.59558,18.79292c-2.39706,5.84882 -6.13646,10.88264 -11.26616,15.10146s-11.6497,7.5747 -19.65587,10.06764s-17.49851,3.73941 -28.52498,3.73941l-78.62346,0l0,-171.14985l0,-0.00001zm29.96321,71.672l48.89996,0c7.19117,0 13.18381,-2.01353 17.97792,-6.13646s7.19117,-9.97175 7.19117,-17.64234c0,-8.62941 -2.15735,-14.71793 -6.47205,-18.21763s-10.54705,-5.27353 -18.69705,-5.27353l-48.89996,0l0,47.26996zm0,75.02788l52.97495,0c9.10882,0 16.2041,-2.34911 21.18998,-7.09528c5.03382,-4.69823 7.5747,-11.40999 7.5747,-20.03939c0,-8.48558 -2.49294,-14.95763 -7.5747,-19.55998s-12.08117,-6.80764 -21.18998,-6.80764l-52.97495,0l0,53.50231l0,-0.00001z" id="svg_2"/>
 </g>
</svg>