<svg width="512" height="512" xmlns="http://www.w3.org/2000/svg">
 <title>Bootstrap</title>

 <g>
  <title>background</title>
  <rect fill="none" id="canvas_background" height="514" width="514" y="-1" x="-1"/>
 </g>
 <g>
  <title>Layer 1</title>
  <path stroke="null" id="svg_1" d="m479.79473,405.19649c0,41.02903 -33.56921,74.59825 -74.59825,74.59825l-298.39298,0c-41.02903,0 -74.59825,-33.56921 -74.59825,-74.59825l0,-298.39298c0,-41.02903 33.56921,-74.59825 74.59825,-74.59825l298.39298,0c41.02903,0 74.59825,33.56921 74.59825,74.59825l0,298.39298z" fill="#563D7C"/>
  <path stroke="null" id="svg_2" d="m151.47132,129.71662l122.74602,0c22.63904,0 40.82101,5.16453 54.47518,15.56434s20.51663,26.03489 20.51663,47.04675c0,12.73446 -3.11287,23.62949 -9.3386,32.68511c-6.22573,9.05561 -15.13986,16.13031 -26.74236,21.0826l0,0.70747c15.56434,3.32511 27.37908,10.6828 35.37349,22.07306c7.99441,11.46101 12.02699,25.7519 12.02699,43.01417c0,9.90458 -1.76867,19.17243 -5.30602,27.73282c-3.53735,8.63113 -9.05561,16.05957 -16.62554,22.2853s-17.19152,11.17802 -29.00627,14.85687s-25.82265,5.51827 -42.09446,5.51827l-116.02506,0l0,-252.56675zm44.21687,105.76675l72.16193,0c10.61205,0 19.45542,-2.97137 26.53012,-9.05561s10.61205,-14.71537 10.61205,-26.03489c0,-12.73446 -3.18361,-21.71933 -9.55084,-26.88386s-15.56434,-7.78217 -27.59133,-7.78217l-72.16193,0l0,69.75653zm0,110.71904l78.17542,0c13.44193,0 23.91248,-3.4666 31.27017,-10.47055c7.42843,-6.9332 11.17802,-16.83778 11.17802,-29.57224c0,-12.52222 -3.67884,-22.07306 -11.17802,-28.86477s-17.82824,-10.04607 -31.27017,-10.04607l-78.17542,0l0,78.95364z" fill="#FFF"/>
 </g>
</svg>