<svg width="512" height="512" xmlns="http://www.w3.org/2000/svg">

 <metadata id="metadata3481">image/svg+xml</metadata>
 <g>
  <title>background</title>
  <rect fill="none" id="canvas_background" height="514" width="514" y="-1" x="-1"/>
 </g>
 <g>
  <title>Layer 1</title>
  <g stroke="null" id="layer1">
   <g stroke="null" id="g3013">
    <polygon stroke="null" fill="#264de4" points="423.51833629608155,129.07173347473145 395.2954053878784,445.24004554748535 268.43230724334717,480.4106693267822 141.91852855682373,445.2895755767822 113.72549724578857,129.07173347473145 " id="polygon2989"/>
    <polygon stroke="null" fill="#2965f1" points="371.1335096359253,425.1075382232666 395.2518262863159,154.92722511291504 268.6219129562378,154.92722511291504 268.6219129562378,453.52776527404785 " id="polygon2991"/>
    <polygon stroke="null" fill="#ebebeb" points="178.35740184783936,272.20789527893066 181.83339977264404,310.99028968811035 268.6219129562378,310.99028968811035 268.6219129562378,272.20789527893066 " id="polygon2993"/>
    <polygon stroke="null" fill="#ebebeb" points="268.6219129562378,193.71047401428223 268.4878339767456,193.71047401428223 171.37299633026123,193.71047401428223 174.89849376678467,232.4937229156494 268.6219129562378,232.4937229156494 " id="polygon2995"/>
    <polygon stroke="null" fill="#ebebeb" points="268.6219129562378,413.2815189361572 268.6219129562378,372.93108558654785 268.4519453048706,372.9763431549072 225.25925731658936,361.313440322876 222.49810314178467,330.3823184967041 201.5098524093628,330.3823184967041 183.5662488937378,330.3823184967041 188.9997205734253,391.2769412994385 268.44341564178467,413.3310489654541 " id="polygon2997"/>
    <path stroke="null" d="m186.63315,43.13726l46.97273,0l0,19.64314l-27.32959,0l0,19.64314l27.32959,0l0,19.64314l-46.97273,0l0,-58.92942z" id="path2999"/>
    <path stroke="null" d="m243.00042,43.13726l46.97273,0l0,17.08099l-27.32959,0l0,3.4162l27.32959,0l0,39.28628l-46.97273,0l0,-17.93504l27.32959,0l0,-3.4162l-27.32959,0l0,-38.43223z" id="path3001"/>
    <path stroke="null" d="m299.3677,43.13726l46.97273,0l0,17.08099l-27.32959,0l0,3.4162l27.32959,0l0,39.28628l-46.97273,0l0,-17.93504l27.32959,0l0,-3.4162l-27.32959,0l0,-38.43223z" id="path3003"/>
    <polygon stroke="null" fill="#ffffff" points="316.24456310272217,310.99028968811035 311.7428846359253,361.2886600494385 268.4878339767456,372.96355628967285 268.4878339767456,413.3122501373291 347.9947462081909,391.2769412994385 348.57805919647217,384.72466468811035 357.69158458709717,282.6221866607666 358.63787364959717,272.20789527893066 365.6393995285034,193.71047401428223 268.4878339767456,193.71047401428223 268.4878339767456,232.4937229156494 323.13674449920654,232.4937229156494 319.60784435272217,272.20789527893066 268.4878339767456,272.20789527893066 268.4878339767456,310.99028968811035 " id="polygon3005"/>
   </g>
  </g>
 </g>
</svg>