<svg width="512" height="512" xmlns="http://www.w3.org/2000/svg">

 <g>
  <title>background</title>
  <rect fill="none" id="canvas_background" height="514" width="514" y="-1" x="-1"/>
 </g>
 <g>
  <title>Layer 1</title>
  <g stroke="null" id="svg_1" fill="#003A2B">
   <path stroke="null" id="svg_2" d="m491.2153,187.92686c0,-16.06315 -13.07466,-29.51137 -29.51137,-29.51137l-411.66493,0c-16.43671,0 -29.51137,13.07466 -29.51137,29.51137l0,146.80972c0,16.06315 13.07466,29.13781 29.51137,29.13781l412.03849,0c16.06315,0 29.51137,-13.07466 29.51137,-29.51137l0,-146.43616l-0.37356,0zm-7.47123,146.43616c0,11.95397 -9.7126,22.04014 -22.04014,22.04014l-411.66493,0c-12.32753,0 -22.04014,-9.7126 -22.04014,-22.04014l0,-146.43616c0,-12.32753 9.7126,-22.04014 22.04014,-22.04014l411.66493,0c11.95397,0 22.04014,9.7126 22.04014,22.04014l0,146.43616zm-354.88356,-142.32699l-22.4137,0l0,34.36767c-3.73562,-0.74712 -6.35055,-1.12068 -9.7126,-1.12068c-22.78726,0 -37.72973,14.5689 -37.72973,36.9826c0,23.16082 14.5689,35.11479 41.09178,35.11479c8.96548,0 17.93096,-0.74712 29.13781,-2.98849l0,-102.35589l-0.37356,0zm-22.4137,87.03986c-3.73562,0.37356 -5.60342,0.74712 -7.84479,0.74712c-11.20685,0 -17.5574,-6.35055 -17.5574,-17.93096c0,-11.95397 6.72411,-18.67808 17.93096,-18.67808c2.61493,0 4.10918,0.37356 7.84479,1.12068l0,34.74123l-0.37356,0zm33.62055,-87.03986l22.4137,0l0,22.4137l-22.4137,0l0,-22.4137zm0,78.07438c0,19.05164 -0.74712,26.14931 -3.73562,32.49986c-2.98849,5.97699 -7.47123,10.08616 -17.18384,14.5689l20.54589,9.7126c9.7126,-4.8563 14.5689,-9.33904 17.93096,-16.06315c3.73562,-7.09767 5.22986,-15.68959 5.22986,-33.24699l0,-51.92507l-22.4137,0l0,44.45384l-0.37356,0zm65.37329,-44.8274c-10.08616,0 -16.81027,1.86781 -28.01712,6.72411l0,16.81027c7.47123,-4.48274 16.06315,-6.72411 23.90794,-6.72411c5.60342,0 5.97699,1.49425 5.97699,5.22986l0,4.8563c-22.4137,2.24137 -36.9826,9.33904 -36.9826,24.65507c0,14.19534 7.09767,20.54589 25.40219,20.54589c8.96548,0 22.78726,-1.12068 30.25849,-2.24137l0,-44.45384c0,-8.96548 1.49425,-13.44822 -0.37356,-16.81027c-3.36205,-5.60342 -8.96548,-8.59192 -20.17233,-8.59192zm1.86781,56.03425c-3.73562,0.74712 -5.97699,1.12068 -9.33904,1.12068c-5.97699,0 -9.33904,-1.86781 -9.33904,-6.35055c0,-5.60342 7.47123,-7.84479 18.67808,-9.33904l0,14.5689zm65.37329,-56.03425c-10.83329,0 -20.54589,1.49425 -35.48836,4.8563l0,66.49397l22.4137,0l0,-51.92507c3.73562,-1.12068 7.84479,-1.49425 10.83329,-1.49425c7.84479,0 11.58041,2.98849 11.58041,11.58041l0,41.8389l22.4137,0l0,-42.95959c0,-10.83329 -2.24137,-16.06315 -6.72411,-20.91945c-4.8563,-4.8563 -13.82178,-7.47123 -25.02863,-7.47123zm108.33288,19.05164l7.84479,-15.68959c-10.45973,-2.24137 -19.05164,-2.98849 -28.39068,-2.98849c-32.1263,0 -50.05726,14.19534 -50.05726,38.85041c0,20.17233 12.32753,32.87342 31.37918,32.87342c5.60342,0 10.45973,-0.74712 14.19534,-2.98849l0,0.37356c0,13.82178 -6.72411,19.79877 -20.91945,19.79877c-8.21836,0 -16.43671,-1.86781 -23.90794,-5.97699l0,20.17233c7.47123,2.98849 15.31603,4.10918 23.90794,4.10918c16.81027,0 29.51137,-5.22986 36.23548,-16.06315c4.8563,-7.09767 7.09767,-16.06315 7.09767,-34.74123l0,-5.97699l-0.74712,-8.96548l-0.74712,-11.58041l-1.49425,-9.33904l0,-2.24137c7.47123,0.37356 0,-0.74712 5.60342,0.37356zm-24.28151,32.1263l0,1.49425c-3.73562,0.74712 -5.22986,1.49425 -8.21836,1.49425c-9.7126,0 -14.94247,-6.35055 -14.94247,-17.18384c0,-7.84479 2.61493,-14.19534 7.84479,-17.18384c3.36205,-2.24137 8.21836,-4.48274 12.7011,-4.48274l2.61493,0l0,35.86192zm66.86753,-51.17794c-22.4137,0 -36.23548,14.19534 -36.23548,37.35616c0,22.04014 13.44822,35.86192 35.48836,35.86192s36.23548,-14.19534 36.23548,-37.35616c-0.37356,-22.4137 -13.82178,-35.86192 -35.48836,-35.86192zm-0.37356,55.66068c-8.59192,0 -13.44822,-7.09767 -13.44822,-19.05164c0,-11.95397 4.8563,-19.05164 13.82178,-19.05164c8.21836,0 13.07466,7.09767 13.07466,19.05164c-0.37356,11.95397 -5.22986,19.05164 -13.44822,19.05164z"/>
  </g>
 </g>
</svg>