<svg width="512" height="512" xmlns="http://www.w3.org/2000/svg">
 <title>HTML5 Logo</title>

 <g>
  <title>background</title>
  <rect fill="none" id="canvas_background" height="602" width="802" y="-1" x="-1"/>
 </g>
 <g>
  <title>Layer 1</title>
  <path stroke="null" id="svg_1" d="m161.79278,25.06423l14.64526,0l0,14.51791l13.49911,0l0,-14.51791l14.64526,0l0,43.93577l-14.64526,0l0,-14.64526l-13.37176,0l0,14.64526l-14.77261,0m62.14683,-29.29052l-12.92603,0l0,-14.64526l40.561,0l0,14.64526l-12.98971,0l0,29.29052l-14.64526,0m34.06614,-43.93577l15.34568,0l9.42391,15.47303l9.42391,-15.47303l15.34568,0l0,43.93577l-14.64526,0l0,-21.77686l-10.25168,15.79141l-10.25168,-15.79141l0,21.77686l-14.39056,0m56.79813,-43.93577l14.64526,0l0,29.41787l20.75806,0l0,14.51791l-35.40332,0"/>
  <path stroke="null" id="svg_2" d="m122.11433,434.77286l-29.77242,-334.17286l327.31619,0l-29.77242,333.99243l-134.15633,37.17042" fill="#e44d26"/>
  <path stroke="null" id="svg_3" d="m256,453.89203l0,-322.89203l137.0097,0l-26.14548,291.94244" fill="#f16529"/>
  <path stroke="null" id="svg_4" d="m155.60375,176.80505l101.0968,0l0,40.26136l-56.93346,0l3.72462,41.23685l53.20884,0l0,40.17267l-90.1003,0m1.77363,20.21936l40.43872,0l2.8378,32.19135l45.05015,12.06067l0,42.03498l-82.65106,-23.05716" fill="#ebebeb"/>
  <path stroke="null" id="svg_5" d="m357.9302,176.90478l-101.44625,0l0,40.47153l97.70219,0m-3.65492,41.45211l-94.04727,0l0,40.47153l49.92082,0l-4.72465,52.59515l-45.19618,12.12363l0,42.07612l82.90423,-22.99924" fill="#fff"/>
 </g>
</svg>