<svg width="512" height="512" xmlns="http://www.w3.org/2000/svg">

 <metadata>Icon Mafia</metadata>
 <g>
  <title>background</title>
  <rect fill="none" id="canvas_background" height="514" width="514" y="-1" x="-1"/>
 </g>
 <g>
  <title>Layer 1</title>
  <g stroke="null" id="svg_1" fill-rule="evenodd" fill="none">
   <path stroke="null" id="svg_2" fill="#8E714E" d="m454.67868,244.67612c-0.41353,0.08271 -0.82885,0.99516 -0.82885,1.49229c-0.08271,3.319 -0.16541,12.11272 -0.16541,18.08548c0,0.16631 0.24812,0.49803 0.49713,0.49803c1.24417,0.08271 4.23055,0.16541 6.80251,0.16541c3.56711,0 5.64104,-0.49713 6.8034,-0.99426c2.98548,-1.49409 4.39596,-4.72948 4.39596,-8.29749c0,-8.04578 -5.64104,-11.11576 -14.02033,-11.11576c-0.58073,-0.08271 -2.23844,-0.08271 -3.48441,0.16631zm21.40447,37.08251c0,-8.21299 -6.05636,-12.77616 -17.00671,-12.77616c-0.49803,0 -3.98244,-0.08271 -4.81219,0.08271c-0.24901,0.0836 -0.57984,0.24991 -0.57984,0.49893c0,5.88915 -0.0836,15.26451 0.16541,18.91433c0.16541,1.57589 1.32778,3.81613 2.73826,4.47957c1.49229,0.82975 4.89399,0.99516 7.21693,0.99516c6.55349,0 12.27813,-3.64982 12.27813,-12.19453zm-38.32668,-41.64478c0.82885,0 3.3172,0.24812 9.70528,0.24812c6.05636,0 10.86765,-0.16541 16.7577,-0.16541c7.21693,0 17.17212,2.57105 17.17212,13.356c0,5.30932 -3.73342,9.54077 -8.62741,11.61469c-0.24812,0.08271 -0.24812,0.24812 0,0.33082c6.96792,1.7431 13.10788,6.05636 13.10788,14.18574c0,7.96487 -4.9776,13.02517 -12.19543,16.17786c-4.39686,1.90761 -9.87159,2.57105 -15.42992,2.57105c-4.23145,0 -15.59623,-0.49713 -21.9007,-0.33082c-0.66344,-0.24991 0.58073,-3.23629 1.16057,-3.73342c1.49409,-0.0836 2.65466,-0.16631 4.23145,-0.66434c2.24023,-0.57984 2.48835,-1.24417 2.82007,-4.64498c0.16631,-2.90367 0.16631,-13.19148 0.16631,-20.49112c0,-10.0379 0.0836,-16.8404 0,-20.1585c-0.08271,-2.57105 -0.99516,-3.4017 -2.82007,-3.89973c-1.41138,-0.24812 -3.73342,-0.58073 -5.64194,-0.82885c-0.41532,-0.41532 0.99516,-3.23629 1.49409,-3.56711zm-47.86835,51.59997c1.99212,1.575 5.89095,2.23844 9.37536,2.23844c4.47957,0 8.95913,-0.82795 13.27329,-4.72858c4.39686,-3.98064 7.46594,-10.1197 7.46594,-19.90859c0,-9.37536 -3.56711,-17.00761 -10.86765,-21.48628c-4.14785,-2.57285 -9.45716,-3.64982 -15.59623,-3.64982c-1.82491,0 -3.56711,0.08271 -4.64498,0.57984c-0.24991,0.16631 -0.82975,0.91245 -0.82975,1.32688c-0.16631,1.6595 -0.16631,14.43476 -0.16631,21.9016c0,7.71496 0,18.4999 0.16631,19.74408c0,1.24507 0.57984,3.15269 1.82491,3.98244l-0.0009,0zm-18.83162,-51.60087c1.57679,0 7.63225,0.24901 10.53593,0.24901c5.22751,0 8.96003,-0.24812 18.83162,-0.24812c8.29569,0 15.26451,2.23933 20.2421,6.46989c6.05546,5.22661 9.20905,12.44444 9.20905,21.23726c0,12.52715 -5.72464,19.74497 -11.44928,23.89282c-5.72284,4.23055 -13.18969,6.7189 -23.80832,6.7189c-5.64104,0 -15.34721,-0.16541 -23.39479,-0.24901l-0.08271,0c-0.41443,-0.74615 0.66344,-3.64982 1.32688,-3.73252c2.15753,-0.24901 2.73826,-0.33262 3.81703,-0.74615c1.7413,-0.66434 2.07392,-1.57679 2.32294,-4.64588c0.24812,-5.72464 0.16541,-12.60985 0.16541,-20.40841c0,-5.55743 0.08271,-16.42598 -0.0836,-19.91039c-0.24812,-2.90277 -1.49229,-3.64982 -3.98154,-4.14785c-1.24417,-0.24812 -2.90367,-0.58073 -5.22571,-0.82885c-0.33262,-0.58163 1.16057,-3.15269 1.575,-3.64982l0,-0.0009z"/>
   <path stroke="null" id="svg_3" fill="#442D22" d="m270.67751,294.94831c-2.07392,-0.24901 -3.56711,-0.57984 -5.39202,-1.40958c-0.24901,-0.16631 -0.66434,-0.99516 -0.66434,-1.32778c-0.16541,-2.90367 -0.16541,-11.19937 -0.16541,-16.7568c0,-4.48047 -0.74615,-8.3793 -2.65466,-11.11666c-2.24023,-3.15359 -5.47473,-4.9776 -9.62347,-4.9776c-3.64982,0 -8.54471,2.48835 -12.60985,5.97276c-0.08271,0.08271 -0.74615,0.66434 -0.66344,-0.24901c0,-0.91245 0.16631,-2.73736 0.24901,-3.98244c0.0836,-1.16147 -0.58073,-1.7413 -0.58073,-1.7413c-2.65466,1.32688 -10.1206,3.06908 -12.85887,3.3172c-1.99032,0.41622 -2.48835,2.32384 -0.41353,2.98728l0.08271,0c2.23844,0.66344 3.73252,1.41048 4.89309,2.15753c0.82975,0.66344 0.74704,1.57589 0.74704,2.32294c0.08271,6.22087 0.08271,15.76164 -0.16541,20.98825c-0.08271,2.07392 -0.66344,2.82007 -2.15753,3.15179l0.16631,-0.08271c-1.16147,0.24901 -2.07392,0.49713 -3.48441,0.66344c-0.49803,0.49803 -0.49803,3.15269 0,3.73342c0.91245,0 5.72374,-0.24901 9.70708,-0.24901c5.47473,0 8.29569,0.24901 9.70528,0.24901c0.58073,-0.66344 0.74704,-3.15269 0.41532,-3.73342c-1.57679,-0.08271 -2.73826,-0.24812 -3.81613,-0.58073c-1.49319,-0.33262 -1.90851,-1.07786 -1.99212,-2.82007c-0.16451,-4.39776 -0.16451,-13.68861 -0.16451,-19.99309c0,-1.7422 0.49713,-2.57195 0.99426,-3.06998c1.90851,-1.6586 4.9785,-2.82007 7.71586,-2.82007c2.65466,0 4.39596,0.82975 5.72374,1.90851c1.82491,1.49229 2.40564,3.64982 2.65466,5.22571c0.41443,3.56711 0.24901,10.61863 0.24901,16.7577c0,3.3181 -0.24901,4.14785 -1.49229,4.56227c-0.58163,0.24901 -2.07482,0.58163 -3.81703,0.74615c-0.58073,0.58163 -0.41443,3.15359 0,3.73432c2.40564,0 5.22661,-0.24901 9.37446,-0.24901c5.14301,0 8.462,0.24901 9.78978,0.24901c0.41353,-0.49803 0.57984,-2.90367 0.24812,-3.56801zm22.97947,-31.68869c-4.39596,0 -7.13423,3.4008 -7.13423,8.70922c0,5.39292 2.40564,11.61469 9.20815,11.61469c1.16147,0 3.319,-0.49803 4.31326,-1.6595c1.57679,-1.49229 2.65556,-4.47957 2.65556,-7.63225c0,-6.88521 -3.4017,-11.03306 -9.04274,-11.03306l0,0.0009zm-0.58073,36.66628c-1.6586,0 -2.82097,0.49803 -3.56711,0.91335c-3.48441,2.23844 -5.0603,4.39596 -5.0603,6.96881c0,2.40474 0.91245,4.31236 2.90367,5.97186c2.40564,2.07392 5.72374,3.06998 9.95429,3.06998c8.462,0 12.19543,-4.56317 12.19543,-9.04184c0,-3.15359 -1.57679,-5.22751 -4.81129,-6.38808c-2.32294,-0.99606 -6.55349,-1.49409 -11.61469,-1.49409zm0.58073,21.56988c-5.0603,0 -8.71102,-1.07876 -11.86281,-3.48441c-3.06998,-2.32294 -4.39686,-5.80735 -4.39686,-8.21299c0,-0.66344 0.16631,-2.48925 1.6595,-4.14785c0.91156,-0.99606 2.90367,-2.90367 7.63225,-6.13907c0.16541,-0.08271 0.24812,-0.16541 0.24812,-0.33262c0,-0.16541 -0.16631,-0.33172 -0.33172,-0.41353c-3.89883,-1.49319 -5.0603,-3.89973 -5.39292,-5.22661l0,-0.16631c-0.08181,-0.49803 -0.24812,-0.99516 0.49893,-1.49319c0.58073,-0.41443 1.41048,-0.91245 2.32204,-1.49229c1.41048,-0.83065 2.90367,-1.7431 3.81613,-2.49015c0.16631,-0.16541 0.16631,-0.33082 0.16631,-0.49713c0,-0.16631 -0.16631,-0.33262 -0.33262,-0.41443c-5.80555,-1.90851 -8.70922,-6.22267 -8.70922,-12.69345c0,-4.23055 1.90761,-8.04668 5.30842,-10.45232c2.32294,-1.82491 8.13028,-4.06514 11.94641,-4.06514l0.24901,0c3.89883,0.08271 6.05546,0.91245 9.12454,1.99122c1.6595,0.58073 3.23629,0.82885 5.39382,0.82885c3.23449,0 4.64498,-0.99516 5.80555,-2.15573c0.0836,0.16541 0.24991,0.58073 0.33262,1.6586c0.08271,1.07876 -0.24901,2.65466 -1.07876,3.81613c-0.66344,0.91245 -2.15663,1.57679 -3.64982,1.57679l-0.41532,0c-1.49319,-0.16631 -2.15753,-0.33262 -2.15753,-0.33262l-0.33082,0.16631c-0.08271,0.16631 0,0.33172 0.08271,0.58073l0.0836,0.16631c0.16541,0.74615 0.49713,2.98548 0.49713,3.56711c0,6.80251 -2.73736,9.78798 -5.64104,12.02822c-2.82097,2.07392 -6.05546,3.4008 -9.70618,3.73342c-0.08271,0 -0.41353,0 -1.16147,0.08271c-0.41443,0 -0.99516,0.0836 -1.07876,0.0836l-0.08271,0c-0.66344,0.16541 -2.32204,0.99516 -2.32204,2.40474c0,1.24417 0.74615,2.73826 4.31326,2.98728c0.74615,0.08271 1.49229,0.08271 2.32294,0.16631c4.72858,0.33082 10.61863,0.74615 13.356,1.6586c3.81613,1.40958 6.22177,4.81129 6.22177,8.87643c0,6.13996 -4.39596,11.86371 -11.6965,15.42992c-3.56711,1.57679 -7.13512,2.40654 -11.03396,2.40654zm47.28582,-57.82174c-1.7413,0 -3.3181,0.41353 -4.47957,1.24328c-3.23449,1.99122 -4.89399,5.97365 -4.89399,11.7801c0,10.86855 5.47473,18.5008 13.27329,18.5008c2.32294,0 4.14785,-0.66434 5.72374,-1.99122c2.40564,-1.99212 3.65072,-5.97365 3.65072,-11.53199c0,-10.78404 -5.39292,-18.00187 -13.27329,-18.00187l-0.0009,0.0009zm1.49409,35.50571c-14.10304,0 -19.16334,-10.36962 -19.16334,-20.0758c0,-6.80251 2.73736,-12.02912 8.21209,-15.76254c3.89973,-2.40564 8.54561,-3.73252 12.69345,-3.73252c10.78404,0 18.33359,7.71496 18.33359,18.83162c0,7.54865 -2.98638,13.52141 -8.71102,17.17212c-2.73736,1.82491 -7.46594,3.56711 -11.36568,3.56711l0.0009,0zm-147.832,-35.50661c-1.7422,0 -3.3181,0.41443 -4.48047,1.24417c-3.23449,1.99122 -4.89399,5.97365 -4.89399,11.7801c0,10.86855 5.47473,18.5008 13.27329,18.5008c2.32294,0 4.14785,-0.66434 5.72464,-1.99122c2.40474,-1.99212 3.64982,-5.97365 3.64982,-11.53199c0,-10.78404 -5.30932,-18.00187 -13.27329,-18.00187zm1.49319,35.50661c-14.10304,0 -19.16334,-10.36962 -19.16334,-20.0758c0,-6.80251 2.73736,-12.02912 8.21209,-15.76254c3.89973,-2.40564 8.54561,-3.73252 12.69345,-3.73252c10.78494,0 18.33359,7.71496 18.33359,18.83162c0,7.54865 -2.98638,13.52141 -8.71102,17.17212c-2.65466,1.82491 -7.38324,3.56711 -11.36478,3.56711zm-94.82155,-0.82975c-0.16631,-0.24812 -0.33262,-0.99516 -0.24901,-1.90761c0,-0.66434 0.16631,-1.07876 0.24901,-1.24417c1.7422,-0.24991 2.65466,-0.49893 3.64982,-0.74704c1.6595,-0.41532 2.32294,-1.32688 2.40564,-3.4008c0.24991,-4.9776 0.24991,-14.43566 0.16631,-20.98915l0,-0.16631c0,-0.74615 0,-1.6595 -0.91245,-2.32294c-1.32778,-0.82885 -2.90367,-1.575 -4.9776,-2.15753c-0.74615,-0.24722 -1.24417,-0.66254 -1.16147,-1.15967c0,-0.49803 0.49803,-1.07876 1.57679,-1.24507c2.73736,-0.24901 9.87069,-1.99032 12.69166,-3.23539c0.16631,0.16541 0.41532,0.66434 0.41532,1.32778l-0.08271,0.91156c-0.0836,0.91335 -0.16631,1.99212 -0.16631,3.06998c0,0.33172 0.33262,0.58073 0.66344,0.58073c0.16631,0 0.33262,-0.08271 0.49803,-0.16631c5.30932,-4.14785 10.1206,-5.64104 12.60895,-5.64104c4.06604,0 7.21873,1.90851 9.62437,5.89005c0.16541,0.24991 0.33172,0.33262 0.58073,0.33262c0.16541,0 0.41353,-0.08271 0.49713,-0.24901c4.89489,-3.73342 9.78978,-5.97365 13.02428,-5.97365c7.71496,0 12.27813,5.72464 12.27813,15.43082c0,2.73736 0,6.30448 -0.08271,9.54077c0,2.90277 -0.08271,5.55743 -0.08271,7.46594c0,0.41353 0.57984,1.7413 1.49229,1.99032c1.16147,0.58073 2.73826,0.82975 4.81219,1.16147l0.08271,0c0.16631,0.58073 -0.16541,2.73736 -0.49713,3.15269c-0.49803,0 -1.24507,0 -2.07392,-0.08271a122.44689,122.44689 0 0 0 -6.30537,-0.16631c-5.14301,0 -7.79766,0.08271 -10.37052,0.24901c-0.16451,-0.66344 -0.24812,-2.65466 0,-3.15269c1.49409,-0.24812 2.24023,-0.49803 3.15359,-0.74615c1.6595,-0.49803 2.07392,-1.24507 2.15753,-3.4017c0,-1.57589 0.33082,-15.01549 -0.16721,-18.25089c-0.49713,-3.3181 -2.98638,-7.21693 -8.462,-7.21693c-2.07392,0 -5.30842,0.82975 -8.4611,3.23449c-0.16541,0.16631 -0.33262,0.58073 -0.33262,0.82975l0,0.0836c0.33262,1.7413 0.33262,3.73342 0.33262,6.80251l0,5.39202c0,3.73342 -0.0836,7.21783 0,9.87159c0,1.82581 1.07876,2.24023 1.99122,2.57285c0.49803,0.08181 0.82885,0.16541 1.24417,0.24812c0.74615,0.16631 1.49319,0.33262 2.65466,0.58073c0.16631,0.33262 0.16631,1.41048 -0.08271,2.32294c-0.0836,0.49803 -0.24991,0.74615 -0.33262,0.82975c-2.82007,-0.08271 -5.72374,-0.16631 -9.95429,-0.16631c-1.24417,0 -3.4017,0.0836 -5.22661,0.0836c-1.49409,0 -2.90367,0.08271 -3.73252,0.08271c-0.0836,-0.16631 -0.24991,-0.74615 -0.24991,-1.6595c0,-0.74615 0.16631,-1.32688 0.33262,-1.49319c0.41443,-0.08271 0.74615,-0.16541 1.16147,-0.16541c0.99426,-0.16631 1.82491,-0.33262 2.65376,-0.49803c1.41138,-0.41443 1.90851,-1.16147 1.99122,-2.98638c0.24901,-4.14785 0.49803,-16.01065 -0.08271,-18.99793c-0.99516,-4.81129 -3.73252,-7.21693 -8.13028,-7.21693c-2.57105,0 -5.80735,1.24417 -8.4611,3.23629c-0.41532,0.33082 -0.74704,1.15967 -0.74704,1.90672l0,4.89489c0,5.97276 0,13.4396 0.08271,16.67499c0.0836,0.99426 0.41443,2.15663 2.32294,2.57105c0.41532,0.08271 1.07876,0.24901 1.90851,0.33262l1.49229,0.24812c0.16721,0.49803 0.0836,2.48925 -0.24812,3.15269c-0.82975,0 -1.82491,-0.08271 -2.98728,-0.08271c-1.7413,-0.0836 -3.98154,-0.16631 -6.46989,-0.16631c-2.90367,0 -4.9776,0.08271 -6.63709,0.16631c-1.16147,-0.16631 -2.07392,-0.16631 -3.06908,-0.16631z"/>
   <path stroke="null" id="svg_4" fill="#FFF" d="m57.63963,318.2604l-3.4008,-1.16237s0.41532,-17.33753 -5.80735,-18.58171c-4.14695,-4.81219 0.66524,-204.07785 15.59713,-0.66434c0,0 -5.14391,2.57105 -6.05636,6.96881c-0.99606,4.31416 -0.33262,13.4396 -0.33262,13.4396z"/>
   <path stroke="null" id="svg_5" fill="#A6A385" d="m57.63963,318.2604l-3.4008,-1.16237s0.41532,-17.33753 -5.80735,-18.58171c-4.14695,-4.81219 0.66524,-204.07785 15.59713,-0.66434c0,0 -5.14391,2.57105 -6.05636,6.96881c-0.99606,4.31416 -0.33262,13.4396 -0.33262,13.4396z"/>
   <path stroke="null" id="svg_6" fill="#FFF" d="m59.46544,301.5027s29.78287,-19.57867 22.81316,-60.31189c-6.7189,-29.61477 -22.56414,-39.32094 -24.30635,-43.05436c-1.90761,-2.65466 -3.73342,-7.29964 -3.73342,-7.29964l1.24507,82.37621c0,0.0836 -2.57195,25.2197 3.98244,28.29058"/>
   <path stroke="null" id="svg_7" fill="#499D4A" d="m59.46544,301.5027s29.78287,-19.57867 22.81316,-60.31189c-6.7189,-29.61477 -22.56414,-39.32094 -24.30635,-43.05436c-1.90761,-2.65466 -3.73342,-7.29964 -3.73342,-7.29964l1.24507,82.37621c0,0.0836 -2.57195,25.2197 3.98244,28.29058"/>
   <path stroke="null" id="svg_8" fill="#FFF" d="m52.49752,302.58056s-27.95796,-19.08064 -26.29847,-52.67784c1.57589,-33.5981 21.31997,-50.10678 25.1361,-53.09316c2.48925,-2.65466 2.57195,-3.65072 2.73826,-6.30537c1.7422,3.73342 1.41048,55.83142 1.6586,61.96959c0.74615,23.64291 -1.32688,45.62812 -3.23449,50.10678z"/>
   <path stroke="null" id="svg_9" fill="#58AA50" d="m52.49752,302.58056s-27.95796,-19.08064 -26.29847,-52.67784c1.57589,-33.5981 21.31997,-50.10678 25.1361,-53.09316c2.48925,-2.65466 2.57195,-3.65072 2.73826,-6.30537c1.7422,3.73342 1.41048,55.83142 1.6586,61.96959c0.74615,23.64291 -1.32688,45.62812 -3.23449,50.10678z"/>
  </g>
 </g>
</svg>