<svg width="512" height="512" xmlns="http://www.w3.org/2000/svg">

 <g>
  <title>background</title>
  <rect fill="none" id="canvas_background" height="514" width="514" y="-1" x="-1"/>
 </g>
 <g>
  <title>Layer 1</title>
  <path stroke="null" id="svg_1" d="m409.76918,279.90835c-14.85697,0.07779 -27.7693,3.6559 -38.58144,8.94529c-3.96704,-7.8563 -7.93409,-14.85697 -8.63415,-19.99079c-0.77785,-5.98946 -1.71127,-9.64536 -0.77785,-16.8016c0.93342,-7.15624 5.13382,-17.34609 5.05604,-18.12394s-0.93342,-4.43375 -9.48979,-4.51154c-8.55637,-0.07779 -15.94596,1.63349 -16.8016,3.88926c-0.85564,2.25577 -2.48913,7.38959 -3.57812,12.67898c-1.47792,7.77852 -17.11274,35.54782 -26.05803,50.09365c-2.87805,-5.67832 -5.36718,-10.65657 -5.91167,-14.62361c-0.77785,-5.98946 -1.71127,-9.64536 -0.77785,-16.8016c0.93342,-7.15624 5.13382,-17.34609 5.05604,-18.12394c-0.07779,-0.77785 -0.93342,-4.43375 -9.48979,-4.51154c-8.55637,-0.07779 -15.94596,1.63349 -16.8016,3.88926c-0.85564,2.25577 -1.78906,7.54516 -3.57812,12.67898c-1.78906,5.13382 -22.5577,51.49378 -28.00266,63.47269c-2.80027,6.14503 -5.21161,11.04549 -6.92288,14.39026c0,0 0,0 0,0s-0.07779,0.23336 -0.31114,0.62228c-1.47792,2.87805 -2.33355,4.43375 -2.33355,4.43375s0,0 0,0.07779c-1.16678,2.1002 -2.41134,4.04483 -3.03362,4.04483c-0.46671,0 -1.32235,-5.60053 0.15557,-13.22348c3.11141,-16.10153 10.501,-41.14835 10.42321,-42.00399c0,-0.46671 1.40013,-4.82268 -4.82268,-7.07845c-6.06724,-2.25577 -8.24523,1.47792 -8.78972,1.47792c-0.5445,0 -0.93342,1.32235 -0.93342,1.32235s6.76731,-28.15823 -12.91234,-28.15823c-12.29006,0 -29.24722,13.45683 -37.64802,25.59132c-5.28939,2.87805 -16.56824,9.02308 -28.62494,15.63482c-4.58932,2.56691 -9.33422,5.13382 -13.76797,7.54516c-0.31114,-0.31114 -0.62228,-0.70007 -0.93342,-1.01121c-23.80226,-25.43575 -67.82866,-43.40412 -65.96182,-77.55181c0.70007,-12.44563 4.97825,-45.1154 84.55247,-84.78583c65.49511,-32.28084 117.61117,-23.33555 126.63425,-3.50033c12.91234,28.3138 -27.92487,80.89657 -95.59797,88.51952c-25.82467,2.87805 -39.35929,-7.07845 -42.78184,-10.81214c-3.57812,-3.88926 -4.12261,-4.12261 -5.44496,-3.34476c-2.17798,1.16678 -0.77785,4.66711 0,6.68952c2.02241,5.28939 10.34543,14.62361 24.42454,19.21294c12.44563,4.04483 42.70406,6.3006 79.34087,-7.8563c40.99278,-15.86817 73.04027,-59.97236 63.62826,-96.92031c-9.412,-37.49245 -71.64014,-49.86029 -130.52351,-28.93608c-35.00332,12.44563 -72.96248,32.04749 -100.26508,57.56102c-32.43641,30.33621 -37.57023,56.70538 -35.47003,67.75088c7.54516,39.20372 61.60585,64.71726 83.23013,83.61905c-1.08899,0.62228 -2.1002,1.16678 -2.95584,1.63349c-10.81214,5.36718 -52.03827,26.91367 -62.30592,49.70472c-11.66777,25.82467 1.86684,44.33754 10.81214,46.82667c27.7693,7.70073 56.31646,-6.14503 71.64014,-29.01387c15.32368,-22.86884 13.45683,-52.58277 6.37838,-66.19517c-0.07779,-0.15557 -0.15557,-0.31114 -0.31114,-0.46671c2.80027,-1.63349 5.67832,-3.34476 8.47858,-4.97825c5.52275,-3.26698 10.96771,-6.3006 15.63482,-8.78972c-2.6447,7.23402 -4.58932,15.86817 -5.52275,28.3138c-1.16678,14.62361 4.82268,33.60319 12.67898,41.07057c3.50033,3.26698 7.62295,3.34476 10.26764,3.34476c9.17865,0 13.30126,-7.62295 17.89059,-16.64603c5.60053,-11.04549 10.65657,-23.88005 10.65657,-23.88005s-6.3006,34.69218 10.81214,34.69218c6.22281,0 12.52341,-8.08966 15.32368,-12.21227c0,0.07779 0,0.07779 0,0.07779s0.15557,-0.23336 0.46671,-0.77785c0.62228,-1.01121 1.01121,-1.63349 1.01121,-1.63349s0,-0.07779 0,-0.15557c2.48913,-4.35597 8.08966,-14.23469 16.41267,-30.64735c10.73435,-21.15756 21.07978,-47.60452 21.07978,-47.60452s0.93342,6.45617 4.12261,17.19052c1.86684,6.3006 5.7561,13.22348 8.86751,19.913c-2.48913,3.50033 -4.04483,5.44496 -4.04483,5.44496s0,0 0.07779,0.07779c-2.02241,2.6447 -4.2004,5.52275 -6.61174,8.32301c-8.47858,10.11207 -18.59065,21.70206 -19.99079,25.04682c-1.63349,3.96704 -1.24456,6.84509 1.86684,9.17865c2.25577,1.71127 6.3006,1.94463 10.42321,1.71127c7.62295,-0.5445 12.99012,-2.41134 15.63482,-3.57812c4.12261,-1.47792 8.94529,-3.73369 13.45683,-7.07845c8.32301,-6.14503 13.37905,-14.93475 12.91234,-26.52474c-0.23336,-6.37838 -2.33355,-12.75677 -4.90047,-18.74622c0.77785,-1.08899 1.47792,-2.17798 2.25577,-3.26698c13.14569,-19.21294 23.33555,-40.29272 23.33555,-40.29272s0.93342,6.45617 4.12261,17.19052c1.5557,5.44496 4.7449,11.35663 7.54516,17.11274c-12.36784,10.03429 -19.99079,21.70206 -22.71327,29.32501c-4.90047,14.1569 -1.08899,20.53528 6.14503,22.0132c3.26698,0.70007 7.93409,-0.85564 11.35663,-2.33355c4.35597,-1.40013 9.48979,-3.81147 14.39026,-7.38959c8.32301,-6.14503 16.33488,-14.7014 15.86817,-26.29139c-0.23336,-5.28939 -1.63349,-10.501 -3.57812,-15.55703c10.501,-4.35597 24.03562,-6.76731 41.30392,-4.7449c37.02574,4.35597 44.33754,27.45816 42.93741,37.18131c-1.40013,9.72315 -9.17865,15.01254 -11.74556,16.64603c-2.56691,1.63349 -3.42255,2.17798 -3.18919,3.34476c0.31114,1.71127 1.5557,1.63349 3.73369,1.32235c3.03362,-0.5445 19.44629,-7.8563 20.14636,-25.74689c1.16678,-22.86884 -20.61307,-47.83788 -59.11672,-47.60452zm-285.62712,96.29803c-12.29006,13.37905 -29.40279,18.43508 -36.79238,14.1569c-7.93409,-4.58932 -4.82268,-24.34676 10.26764,-38.50366c9.17865,-8.63415 21.00199,-16.64603 28.8583,-21.54649c1.78906,-1.08899 4.43375,-2.6447 7.62295,-4.58932c0.5445,-0.31114 0.85564,-0.46671 0.85564,-0.46671l0,0c0.62228,-0.38893 1.24456,-0.77785 1.86684,-1.16678c5.52275,20.22414 0.23336,38.03695 -12.67898,52.11606zm89.45294,-60.828c-4.27818,10.42321 -13.22348,37.10352 -18.66844,35.62561c-4.66711,-1.24456 -7.54516,-21.46871 -0.93342,-41.45949c3.34476,-10.03429 10.42321,-22.0132 14.54583,-26.68031c6.68952,-7.46738 14.07911,-9.9565 15.86817,-6.92288c2.25577,3.96704 -8.16744,32.90312 -10.81214,39.43708zm73.81812,35.31446c-1.78906,0.93342 -3.50033,1.5557 -4.27818,1.08899c-0.5445,-0.31114 0.77785,-1.5557 0.77785,-1.5557s9.25643,-9.9565 12.91234,-14.46804c2.1002,-2.6447 4.58932,-5.7561 7.23402,-9.25643c0,0.31114 0,0.70007 0,1.01121c0,11.90113 -11.5122,19.913 -16.64603,23.17998zm56.93874,-12.99012c-1.32235,-0.93342 -1.08899,-4.04483 3.34476,-13.76797c1.71127,-3.81147 5.7561,-10.18986 12.67898,-16.33488c0.77785,2.48913 1.32235,4.90047 1.24456,7.15624c-0.07779,15.01254 -10.81214,20.61307 -17.26831,22.94662z" fill="#CD6799"/>
  <g id="svg_2"/>
  <g id="svg_3"/>
  <g id="svg_4"/>
  <g id="svg_5"/>
  <g id="svg_6"/>
  <g id="svg_7"/>
 </g>
</svg>