<svg width="512" height="512" xmlns="http://www.w3.org/2000/svg" xmlns:xlink="http://www.w3.org/1999/xlink">
 <title>SQLite</title>
 <metadata id="metadata2991">image/svg+xmlSQLite</metadata>
 <defs>
  <linearGradient spreadMethod="pad" gradientTransform="matrix(-4.02e-6,-91.8907,-91.8907,4.02e-6,85.8809,161.434)" gradientUnits="userSpaceOnUse" id="linearGradient3027" y2="0" x2="1" y1="0" x1="0">
   <stop stop-color="#97d9f6" offset="0" id="stop3029"/>
   <stop stop-color="#0f80cc" offset="0.92024" id="stop3031"/>
   <stop stop-color="#0f80cc" offset="1" id="stop3033"/>
  </linearGradient>
  <linearGradient spreadMethod="pad" xlink:href="#linearGradient3027" id="linearGradient2995" y2="0.94439" x2="0.57662" y1="0.02046" x1="0.57662"/>
 </defs>
 <g>
  <title>background</title>
  <rect fill="none" id="canvas_background" height="514" width="514" y="-1" x="-1"/>
 </g>
 <g>
  <title>Layer 1</title>
  <path fill="#003b57" fill-rule="nonzero" id="SQLite" d="m219.48076,223.1985c-5.84988,0 -10.60651,1.7316 -14.25321,5.19332c-3.6467,3.46474 -5.49658,8.00622 -5.49658,13.57087c0,2.88385 0.45944,5.51326 1.36467,7.92266c0.90523,2.41425 2.31387,4.65079 4.20773,6.67171c1.89386,2.02274 5.6846,4.77043 11.33433,8.26383c6.93252,4.23214 11.46928,7.66686 13.64669,10.34873c2.17892,2.6796 3.26004,5.48779 3.26004,8.41546c0,3.91994 -1.29037,7.04897 -3.94238,9.40105c-2.65656,2.35315 -6.20924,3.52539 -10.61409,3.52539c-4.64594,0 -8.69294,-1.63775 -12.1683,-4.89006c-3.47536,-3.25701 -5.22971,-7.56496 -5.26914,-12.96435l-2.16073,0l0,19.59816l2.16073,0c0.65959,-1.8558 1.5724,-2.80515 2.76725,-2.80515c0.57468,0 1.92115,0.39636 4.01819,1.13722c5.10235,1.81546 9.29188,2.69143 12.58528,2.69143c5.67551,0 10.52008,-1.98771 14.55647,-6.02729c4.03032,-4.03775 6.0652,-8.90826 6.0652,-14.59438c0,-4.40909 -1.34344,-8.33192 -3.98028,-11.7513c-2.63684,-3.4235 -7.76497,-7.40562 -15.42834,-11.97876c-6.59438,-3.96196 -10.87489,-7.18877 -12.85063,-9.70431c-1.97877,-2.51191 -2.99469,-5.29051 -2.99469,-8.33964c0,-3.29795 1.21152,-5.94694 3.60121,-7.92266c2.38969,-1.97725 5.52084,-2.95678 9.43896,-2.95678c4.4094,0 8.08491,1.30857 10.99317,3.94238c2.90523,2.63835 4.58529,6.29446 5.0796,10.99317l2.16073,0l0,-16.98255l-2.0091,0c-0.24564,0.86581 -0.47309,1.41926 -0.68233,1.66793c-0.20318,0.24716 -0.59439,0.37907 -1.17513,0.37907c-0.69901,0 -1.94541,-0.29417 -3.71493,-0.87187c-3.79075,-1.27672 -7.28582,-1.93328 -10.50037,-1.93328zm70.62162,0c-7.12812,0 -13.59968,1.68006 -19.44653,5.04169c-5.85595,3.35557 -10.49127,8.01516 -13.91204,13.94995c-3.41925,5.93433 -5.11751,12.23697 -5.11751,18.95374c0,9.02379 2.95375,17.06304 8.90826,24.10914c5.95754,7.04185 13.09627,11.42971 21.37981,13.11598c1.89386,0.98681 4.60348,3.53419 8.15011,7.65731c3.99696,4.65306 7.37831,8.00909 10.1592,10.00757c2.77786,1.99954 5.7771,3.46505 8.94616,4.43517c3.1721,0.96604 6.60196,1.44048 10.31083,1.44048c4.49128,0 8.5125,-0.78059 12.05458,-2.38817l-0.79606,-1.97119c-2.0561,0.74163 -4.24867,1.09932 -6.55799,1.09932c-3.13419,0 -6.30174,-1.03351 -9.47687,-3.10841c-3.17058,-2.08006 -7.1357,-6.04866 -11.86504,-11.90295c-2.22289,-2.80515 -3.75739,-4.57498 -4.62471,-5.26914c9.06292,-1.76982 16.51553,-6.16224 22.3275,-13.1918c5.81046,-7.02653 8.71872,-15.04576 8.71872,-24.03332c0,-10.67158 -3.79681,-19.64017 -11.33433,-26.95221c-7.54359,-7.31281 -16.8203,-10.99317 -27.82408,-10.99317zm44.08639,0l0.11366,2.31236c4.74602,0 7.40409,1.39803 7.99848,4.20773c0.22138,1.00531 0.32297,2.86155 0.34117,5.53449l-0.03785,51.13716c-0.03942,3.81925 -0.58378,6.25777 -1.63002,7.31614c-1.04776,1.0508 -2.8188,1.70887 -5.38286,1.97119l-0.11366,2.31236l47.30852,0l1.21304,-11.59969l-2.16073,0c-0.61713,3.15997 -2.03184,5.42366 -4.28354,6.70962c-2.25777,1.29537 -6.25018,1.93328 -12.01667,1.93328l-4.47308,0c-5.18877,0 -8.19105,-1.87582 -8.98407,-5.64821c-0.16376,-0.74632 -0.21986,-1.54648 -0.22744,-2.42608l0.18954,-51.70578c-0.00121,-3.8132 0.48067,-6.36845 1.47839,-7.6194c1.00834,-1.24641 2.82638,-1.94391 5.45868,-2.12282l-0.11366,-2.31236l-24.67776,0l-0.00012,0zm-43.32824,2.80515c8.03942,0 14.60347,3.16632 19.67398,9.55268c5.06899,6.38863 7.58149,15.14463 7.58149,26.23197c0,10.50626 -2.5489,18.9187 -7.65731,25.24636c-5.10841,6.3257 -11.90749,9.47687 -20.35631,9.47687c-8.11675,0 -14.699,-3.24943 -19.74979,-9.78013c-5.04624,-6.5307 -7.54359,-15.00954 -7.54359,-25.4359c0,-10.71417 2.52767,-19.29081 7.6194,-25.70126c5.0887,-6.40363 11.90295,-9.59059 20.43213,-9.59059zm108.79444,10.99317c-1.1539,0 -2.03336,0.38969 -2.69143,1.17513c-0.67324,0.7824 -0.87945,1.73008 -0.64443,2.88097c0.22744,1.11644 0.85671,2.09492 1.85747,2.91888c0.99469,0.82318 2.06823,1.25095 3.22213,1.25095c1.116,0 1.96664,-0.42774 2.57771,-1.25095c0.61107,-0.82396 0.79757,-1.80243 0.56861,-2.91888c-0.23503,-1.15088 -0.84306,-2.09857 -1.78165,-2.88097c-0.9492,-0.78544 -1.99242,-1.17513 -3.10841,-1.17513zm31.19785,7.84685c-1.96057,7.54236 -6.21076,11.62393 -12.73691,12.28202l0.07581,2.16073l7.6194,0l-0.15163,25.54962c0.01213,4.36815 0.14556,7.27641 0.45489,8.75663c0.75057,3.54375 3.06444,5.34495 6.93707,5.34495c5.60272,0 11.4799,-3.41289 17.62697,-10.23502l-1.85747,-1.59211c-4.43821,4.49265 -8.36239,6.74753 -11.78922,6.74753c-2.10614,0 -3.41167,-1.21122 -3.90447,-3.60121c-0.13495,-0.58044 -0.18954,-1.25867 -0.18954,-2.047l0.07581,-28.92339l11.63759,0l-0.11366,-3.44958l-11.48596,0l0,-10.99317l-2.19863,0l-0.00006,0zm44.99617,9.6285c-6.50947,0 -11.80439,3.15997 -15.92114,9.43896c-4.09552,6.28961 -5.36315,13.25804 -3.75284,20.92491c0.94769,4.49082 2.83548,7.97134 5.72403,10.42455c2.884,2.45216 6.54283,3.67702 10.91735,3.67702c4.07278,0 9.74374,-1.03123 12.13039,-3.10841c2.39272,-2.07597 4.59742,-5.43912 6.63381,-10.04548l-1.63002,-1.70584c-3.24791,5.97573 -9.80287,8.98407 -14.74601,8.98407c-6.79605,0 -10.95829,-3.72858 -12.50947,-11.1448c-0.20167,-0.94663 -0.35178,-1.96361 -0.45489,-3.0326c8.08491,-1.28006 14.21227,-3.54678 18.34722,-6.82334c4.13191,-3.27837 8.28051,-6.75344 7.50568,-10.42454c-0.46095,-2.18151 -1.59363,-3.89674 -3.33586,-5.19332c-1.76497,-1.29597 -6.34723,-1.97119 -8.90826,-1.97119zm-71.15232,0.26535l-14.02576,3.22213l0,2.50189l4.85216,-0.60652c2.35026,0 3.73313,1.0643 4.16982,3.18423c0.14708,0.70948 0.23958,1.70584 0.26535,2.95678l-0.15163,22.93401c-0.03942,3.17361 -0.39121,5.01849 -1.09932,5.5724c-0.71418,0.55497 -2.59742,0.83396 -5.64821,0.83396l-0.07581,2.16073l22.25168,0l-0.03785,-2.16073c-3.09173,0 -5.09628,-0.24397 -5.98938,-0.72024c-0.87794,-0.47323 -1.48294,-1.33449 -1.74374,-2.65352c-0.20167,-0.95057 -0.28961,-2.58847 -0.30326,-4.85216l0.07581,-32.37297l-2.5398,0l-0.00006,0zm67.58902,4.24564c1.35405,0 2.66262,0.52297 3.98028,1.55421c1.29947,1.0276 2.09098,2.17027 2.35026,3.41167c1.26914,6.0972 -4.13646,10.31248 -16.30021,12.66108c-0.34723,-4.44593 0.42305,-8.48186 2.38817,-12.13038c1.94996,-3.64504 4.48976,-5.49658 7.58149,-5.49658z"/>
  <path fill="#0f80cc" fill-rule="nonzero" id="solid-background" d="m190.05255,119.3937l-135.86489,0c-9.10581,0 -16.55608,7.45164 -16.55608,16.55711l0,149.83356c0,9.10495 7.45027,16.5554 16.55608,16.5554l89.48417,0c-1.01568,-44.52442 14.18883,-130.93252 46.38073,-182.94607z"/>
  <path fill="url(#linearGradient2995)" fill-rule="nonzero" id="gradient-background" d="m191.42214,119.38934l-141.52503,0c-6.98892,0 -12.67628,5.68588 -12.67628,12.67609l0,150.14297c32.05238,-12.30158 80.15911,-22.91607 113.42191,-22.434c6.68422,-34.95052 26.32909,-103.44609 40.7794,-140.38506z"/>
  <path fill="#003b57" fill-rule="nonzero" id="feather" d="m211.32459,121.5076c-8.71506,-7.77194 -19.2668,-4.65006 -29.68107,4.59251c-1.54576,1.37312 -3.08831,2.89649 -4.62288,4.52377c-17.81536,18.89914 -34.35191,53.90644 -39.48951,80.64147c2.00133,4.05861 3.56467,9.23777 4.59411,13.19407c0.26375,1.01505 0.50193,1.96776 0.69215,2.7782c0.45238,1.91804 0.69535,3.16185 0.69535,3.16185c0,0 -0.15985,-0.6044 -0.81524,-2.50486c-0.12468,-0.36446 -0.26375,-0.76249 -0.4284,-1.23085c-0.07033,-0.19342 -0.16784,-0.4284 -0.27494,-0.67937c-1.16211,-2.70148 -4.37671,-8.40335 -5.79139,-10.88583c-1.21007,3.56947 -2.27947,6.90875 -3.17463,9.92992c4.08418,7.4727 6.57306,20.27898 6.57306,20.27898c0,0 -0.2158,-0.82994 -1.24204,-3.72659c-0.91115,-2.56193 -5.44931,-10.51323 -6.5243,-12.37214c-1.83892,6.78855 -2.56961,11.37179 -1.9107,12.4877c1.27929,2.16231 2.49767,5.89322 3.56755,10.01929c2.41694,9.29515 4.09697,20.61083 4.09697,20.61083c0,0 0.05435,0.74985 0.14546,1.90382c-0.33569,7.80583 -0.13427,15.8989 0.46996,23.21399c0.80085,9.68343 2.30824,18.00191 4.22965,22.4539l1.30438,-0.71117c-2.82136,-8.77117 -3.96749,-20.26603 -3.46556,-33.52245c0.75929,-20.26282 5.42213,-44.69888 14.03809,-70.16805c14.556,-38.44728 34.75154,-69.29527 53.23507,-84.0271c-16.84666,15.21459 -39.64776,64.46298 -46.47339,82.70034c-7.64246,20.42252 -13.0582,39.58719 -16.32235,57.94875c5.63154,-17.21383 23.84013,-24.61317 23.84013,-24.61317c0,0 8.93086,-11.01418 19.36751,-26.74973c-6.25176,1.42587 -16.51737,3.86679 -19.95576,5.31184c-5.07206,2.12761 -6.43879,2.85333 -6.43879,2.85333c0,0 16.42945,-10.00505 30.52508,-14.53522c19.38509,-30.53148 40.50456,-73.90536 19.23643,-92.87804"/>
 </g>
</svg>