<svg width="512" height="512" xmlns="http://www.w3.org/2000/svg">

 <g>
  <title>background</title>
  <rect fill="none" id="canvas_background" height="514" width="514" y="-1" x="-1"/>
 </g>
 <g>
  <title>Layer 1</title>
  <g stroke="null" id="svg_1">
   <path stroke="null" id="svg_2" d="m509.66175,261.13922c0,-33.55382 -42.01971,-65.35252 -106.44304,-85.07184c14.86692,-65.66225 8.2594,-117.90296 -20.85499,-134.62825c-6.71076,-3.92322 -14.5572,-5.78158 -23.12633,-5.78158l0,23.02308c4.74916,0 8.56913,0.92918 11.76965,2.68431c14.04098,8.05292 20.13229,38.71595 15.38314,78.15459c-1.13567,9.7048 -2.99403,19.92581 -5.26537,30.3533c-20.23554,-4.95564 -42.32944,-8.77561 -65.559,-11.25344c-13.93774,-19.09987 -28.39169,-36.44461 -42.94889,-51.62126c33.65706,-31.28249 65.24928,-48.42074 86.72372,-48.42074l0,-23.02308c0,0 0,0 0,0c-28.39169,0 -65.559,20.23554 -103.13928,55.33799c-37.58028,-34.89597 -74.74759,-54.92502 -103.13928,-54.92502l0,23.02308c21.3712,0 53.06666,17.03502 86.72372,48.11102c-14.45395,15.17665 -28.90791,32.41815 -42.63916,51.51802c-23.33281,2.47782 -45.42671,6.29779 -65.66225,11.35668c-2.37458,-10.32425 -4.1297,-20.33878 -5.36861,-29.94033c-4.8524,-39.43864 1.13567,-70.10168 15.07341,-78.25783c3.09728,-1.85837 7.12373,-2.68431 11.87289,-2.68431l0,-23.02308c0,0 0,0 0,0c-8.67237,0 -16.5188,1.85837 -23.33281,5.78158c-29.01115,16.72529 -35.51543,68.86276 -20.54526,134.31853c-64.21685,19.82256 -106.03007,51.51802 -106.03007,84.9686c0,33.55382 42.01971,65.35252 106.44304,85.07184c-14.86692,65.66225 -8.2594,117.90296 20.85499,134.62825c6.71076,3.92322 14.5572,5.78158 23.22957,5.78158c28.39169,0 65.559,-20.23554 103.13928,-55.33799c37.58028,34.89597 74.74759,54.92502 103.13928,54.92502c8.67237,0 16.5188,-1.85837 23.33281,-5.78158c29.01115,-16.72529 35.51543,-68.86276 20.54526,-134.31853c64.01037,-19.71932 105.82359,-51.51802 105.82359,-84.9686zm-134.42177,-68.86276c-3.81997,13.31829 -8.56913,27.04954 -13.93774,40.7808c-4.23294,-8.2594 -8.67237,-16.5188 -13.52477,-24.77821c-4.74916,-8.2594 -9.80804,-16.31232 -14.86692,-24.15875c14.66044,2.16809 28.80466,4.8524 42.32944,8.15616zm-47.28508,109.95329c-8.05292,13.93774 -16.31232,27.15278 -24.88145,39.43864c-15.38314,1.34215 -30.97276,2.06485 -46.66562,2.06485c-15.58962,0 -31.17924,-0.7227 -46.45914,-1.96161c-8.56913,-12.28586 -16.93177,-25.39766 -24.98469,-39.23216c-7.84643,-13.52477 -14.97017,-27.25603 -21.47445,-41.09053c6.40104,-13.8345 13.62801,-27.669 21.3712,-41.19377c8.05292,-13.93774 16.31232,-27.15278 24.88145,-39.43864c15.38314,-1.34215 30.97276,-2.06485 46.66562,-2.06485c15.58962,0 31.17924,0.7227 46.45914,1.96161c8.56913,12.28586 16.93177,25.39766 24.98469,39.23216c7.84643,13.52477 14.97017,27.25603 21.47445,41.09053c-6.50428,13.8345 -13.62801,27.669 -21.3712,41.19377zm33.34734,-13.42153c5.5751,13.8345 10.32425,27.669 14.24747,41.09053c-13.52477,3.30376 -27.77224,6.09131 -42.53592,8.2594c5.05888,-7.94967 10.11777,-16.10583 14.86692,-24.46848c4.74916,-8.2594 9.18858,-16.62205 13.42153,-24.88145zm-104.68792,110.15978c-9.60155,-9.91128 -19.20311,-20.95823 -28.70142,-33.03761c9.29183,0.41297 18.79014,0.7227 28.39169,0.7227c9.7048,0 19.30635,-0.20649 28.70142,-0.7227c-9.29183,12.07938 -18.89338,23.12633 -28.39169,33.03761zm-76.81244,-60.80985c-14.66044,-2.16809 -28.80466,-4.8524 -42.32944,-8.15616c3.81997,-13.31829 8.56913,-27.04954 13.93774,-40.7808c4.23294,8.2594 8.67237,16.5188 13.52477,24.77821c4.8524,8.2594 9.80804,16.31232 14.86692,24.15875zm76.29623,-214.8477c9.60155,9.91128 19.20311,20.95823 28.70142,33.03761c-9.29183,-0.41297 -18.79014,-0.7227 -28.39169,-0.7227c-9.7048,0 -19.30635,0.20649 -28.70142,0.7227c9.29183,-12.07938 18.89338,-23.12633 28.39169,-33.03761zm-76.39947,60.80985c-5.05888,7.94967 -10.11777,16.10583 -14.86692,24.46848c-4.74916,8.2594 -9.18858,16.5188 -13.42153,24.77821c-5.5751,-13.8345 -10.32425,-27.669 -14.24747,-41.09053c13.52477,-3.20052 27.77224,-5.98807 42.53592,-8.15616zm-93.43449,129.25964c-36.54785,-15.58962 -60.19039,-36.03164 -60.19039,-52.24072c0,-16.20908 23.64254,-36.75434 60.19039,-52.24072c8.87886,-3.81997 18.58365,-7.22698 28.59818,-10.4275c5.88482,20.23554 13.62801,41.29701 23.22957,62.8747c-9.49831,21.47445 -17.13826,42.43268 -22.91984,62.56497c-10.22101,-3.20052 -19.92581,-6.71076 -28.90791,-10.53074zm55.54448,147.53357c-14.04098,-8.05292 -20.13229,-38.71595 -15.38314,-78.15459c1.13567,-9.7048 2.99403,-19.92581 5.26537,-30.3533c20.23554,4.95564 42.32944,8.77561 65.559,11.25344c13.93774,19.09987 28.39169,36.44461 42.94889,51.62126c-33.65706,31.28249 -65.24928,48.42074 -86.72372,48.42074c-4.64591,-0.10324 -8.56913,-1.03243 -11.66641,-2.78755zm244.89127,-78.6708c4.8524,39.43864 -1.13567,70.10168 -15.07341,78.25783c-3.09728,1.85837 -7.12373,2.68431 -11.87289,2.68431c-21.3712,0 -53.06666,-17.03502 -86.72372,-48.11102c14.45395,-15.17665 28.90791,-32.41815 42.63916,-51.51802c23.33281,-2.47782 45.42671,-6.29779 65.66225,-11.35668c2.37458,10.4275 4.23294,20.44202 5.36861,30.04358zm39.74837,-68.86276c-8.87886,3.81997 -18.58365,7.22698 -28.59818,10.4275c-5.88482,-20.23554 -13.62801,-41.29701 -23.22957,-62.8747c9.49831,-21.47445 17.13826,-42.43268 22.91984,-62.56497c10.22101,3.20052 19.92581,6.71076 29.01115,10.53074c36.54785,15.58962 60.19039,36.03164 60.19039,52.24072c-0.10324,16.20908 -23.74578,36.75434 -60.29364,52.24072z" fill="#61DAFB"/>
   <polygon stroke="null" id="svg_3" points="152.9588165283203,35.96726703643799 152.9588165283203,35.96726703643799 152.9588165283203,35.96726703643799 " fill="#61DAFB"/>
   <circle stroke="null" id="svg_4" r="47.18184" cy="261.13922" cx="256.3046" fill="#61DAFB"/>
   <polygon stroke="null" id="svg_5" points="359.1341552734375,35.65753650665283 359.1341552734375,35.65753650665283 359.1341552734375,35.65753650665283 " fill="#61DAFB"/>
  </g>
 </g>
</svg>