<?xml version="1.0" standalone="no"?>
<!DOCTYPE svg PUBLIC "-//W3C//DTD SVG 20010904//EN"
 "http://www.w3.org/TR/2001/REC-SVG-20010904/DTD/svg10.dtd">
<svg version="1.0" xmlns="http://www.w3.org/2000/svg"
 width="1024.000000pt" height="1024.000000pt" viewBox="0 0 1024.000000 1024.000000"
 preserveAspectRatio="xMidYMid meet">

<g transform="translate(0.000000,1024.000000) scale(0.100000,-0.100000)"
fill="#000000" stroke="none">
<path d="M4845 10230 c-1443 -86 -2744 -743 -3670 -1855 -431 -518 -773 -1161
-965 -1816 -322 -1101 -265 -2279 162 -3344 385 -960 1070 -1796 1938 -2368
958 -630 2071 -916 3220 -826 1877 146 3535 1335 4289 3076 556 1284 556 2762
0 4046 -555 1281 -1609 2284 -2915 2772 -438 164 -893 265 -1369 304 -183 16
-522 21 -690 11z m555 -230 c1052 -64 2021 -446 2839 -1119 157 -129 506 -478
633 -631 266 -323 466 -631 643 -995 603 -1237 655 -2667 143 -3950 -350 -877
-980 -1664 -1768 -2209 -1246 -863 -2826 -1094 -4275 -626 -1370 443 -2497
1496 -3033 2835 -466 1165 -466 2465 0 3630 188 469 453 913 787 1315 123 150
475 501 621 622 791 652 1727 1037 2720 1118 267 21 455 24 690 10z"/>
<path d="M4885 9504 c-978 -63 -1830 -400 -2585 -1022 -245 -203 -552 -535
-750 -812 -76 -106 -87 -126 -73 -134 34 -19 729 2 1255 38 225 16 262 11 313
-39 85 -85 64 -234 -41 -292 -41 -23 -178 -40 -465 -61 l-105 -7 795 -2367
c438 -1302 799 -2364 802 -2360 4 4 220 648 481 1432 l474 1425 -341 935 -341
935 -90 7 c-282 23 -410 40 -449 62 -132 71 -104 295 42 335 23 7 125 4 316
-9 474 -32 825 -43 1092 -36 250 7 664 28 891 46 136 11 176 4 225 -37 41 -35
59 -79 59 -145 0 -72 -31 -125 -90 -155 -47 -23 -196 -43 -458 -59 -76 -5
-112 -11 -109 -18 2 -6 356 -1059 787 -2341 431 -1282 786 -2333 790 -2338 3
-4 93 284 200 640 106 357 233 779 283 938 176 570 235 795 268 1025 37 251
18 535 -52 800 -61 231 -176 480 -361 780 -180 293 -255 437 -303 585 -104
319 -58 616 132 848 127 155 328 256 521 260 l77 2 -75 65 c-178 155 -357 289
-555 412 -570 356 -1191 570 -1866 643 -139 15 -571 27 -694 19z"/>
<path d="M8984 7170 c3 -19 11 -107 17 -195 35 -498 -69 -1101 -288 -1670 -61
-157 -1374 -3958 -1369 -3962 6 -7 188 109 332 211 343 244 696 589 962 942
234 311 447 702 591 1082 412 1090 365 2340 -128 3389 -35 73 -76 156 -92 185
-29 51 -30 52 -25 18z"/>
<path d="M1042 6738 c-33 -84 -78 -209 -100 -278 -337 -1049 -267 -2186 196
-3185 405 -875 1132 -1633 1965 -2051 73 -37 89 -42 85 -27 -12 43 -2071 5679
-2078 5686 -4 5 -35 -60 -68 -145z"/>
<path d="M4541 2819 c-386 -1123 -650 -1904 -645 -1909 5 -5 72 -25 149 -44
678 -170 1370 -178 2050 -25 129 29 424 113 457 130 15 8 15 14 -6 66 -13 32
-320 870 -681 1863 -362 993 -661 1808 -664 1812 -4 4 -300 -848 -660 -1893z"/>
</g>
</svg>
